G04 Layer: BottomLayer*
G04 EasyEDA v6.5.57, 2026-07-30 17:15:16*
G04 e1e579e9a9844d889cce2d546e7861d0,209c19a4f49c41c0aa8e12dc96836e4f,10*
G04 Gerber Generator version 0.2*
G04 Scale: 100 percent, Rotated: No, Reflected: No *
G04 Dimensions in millimeters *
G04 leading zeros omitted , absolute positions ,4 integer and 5 decimal *
%FSLAX45Y45*%
%MOMM*%

%AMMACRO1*21,1,$1,$2,0,0,$3*%
%ADD10C,0.4000*%
%ADD11MACRO1,0.8X0.9X-90.0000*%
%ADD12MACRO1,0.8X0.9X90.0000*%
%ADD13MACRO1,0.8X0.9X0.0000*%
%ADD14MACRO1,1X0.8X0.0000*%
%ADD15R,0.8640X0.8065*%
%ADD16MACRO1,0.864X0.8065X0.0000*%
%ADD17MACRO1,0.864X0.8065X90.0000*%
%ADD18C,0.0174*%
%ADD19C,1.7500*%
%ADD20MACRO1,1.7X1.7X0.0000*%
%ADD21C,1.7000*%
%ADD22MACRO1,1.5748X1.5748X0.0000*%
%ADD23C,1.5748*%
%ADD24MACRO1,1.5748X1.5748X-90.0000*%
%ADD25MACRO1,1.5748X1.5748X90.0000*%

%LPD*%
D10*
X2139802Y8851900D02*
G01*
X1739900Y8851900D01*
X2336800Y8356600D02*
G01*
X2336800Y8851900D01*
X2279904Y8851900D01*
X2082800Y8356600D02*
G01*
X2082800Y8851900D01*
X2139695Y8851900D01*
X2374188Y8146795D02*
G01*
X2336800Y8184184D01*
X2336800Y8356600D01*
X1409700Y6692900D02*
G01*
X2070100Y6692900D01*
X2120900Y6743700D01*
X2120900Y6743700D02*
G01*
X2120900Y6853857D01*
X2120900Y7213600D01*
X2139797Y7213600D01*
X2374900Y6743700D02*
G01*
X2374900Y7213600D01*
X2279802Y7213600D01*
X2399593Y6330695D02*
G01*
X2374900Y6355389D01*
X2374900Y6743700D01*
X914400Y7340600D02*
G01*
X914400Y5753100D01*
X2641600Y5740400D01*
X2629611Y5752388D01*
X2629611Y6235700D01*
X2222500Y10744200D02*
G01*
X2235200Y10731500D01*
X2235200Y10324236D01*
X1409700Y6692900D02*
G01*
X1524000Y6692900D01*
X1524000Y7759700D01*
X1340104Y7759700D01*
X1352804Y6146800D02*
G01*
X1409700Y6146800D01*
X1409700Y6692900D01*
X1155700Y6692900D02*
G01*
X1155700Y6146800D01*
X1212595Y6146800D01*
X1143711Y7245604D02*
G01*
X1155700Y7233615D01*
X1155700Y6692900D01*
X913686Y9004300D02*
G01*
X913686Y7340602D01*
X913688Y7340600D01*
X1143000Y8343900D02*
G01*
X1143000Y7759700D01*
X1199895Y7759700D01*
X1340104Y7759700D02*
G01*
X1397000Y7759700D01*
X1397000Y8343900D01*
X1460500Y9854437D02*
G01*
X1739900Y9854437D01*
X1739900Y8343900D01*
X1397000Y8343900D01*
X1143000Y8343900D02*
G01*
X1143713Y8344613D01*
X1143713Y8909304D01*
X1104900Y9855200D02*
G01*
X901700Y9855200D01*
X913688Y9004300D01*
X5914897Y10795000D02*
G01*
X4978400Y10795000D01*
X1968500Y10744200D02*
G01*
X1968500Y10934700D01*
X5651500Y10934700D01*
X5778500Y11061700D01*
X5902197Y11061700D01*
X5914897Y11049000D01*
X1714500Y10744200D02*
G01*
X1714500Y11112500D01*
X4965700Y11112500D01*
X1460500Y10744200D02*
G01*
X1460500Y11277600D01*
X2856738Y11277600D01*
X2856738Y11442700D01*
X5914897Y11303000D02*
G01*
X6184900Y11303000D01*
X6184900Y8788400D01*
X7861300Y8788400D01*
X7861300Y12344400D01*
X1460500Y12344400D01*
X1460500Y11804395D01*
X1854200Y11804395D01*
X1206500Y10744200D02*
G01*
X1207262Y11455400D01*
X1358036Y11455400D02*
G01*
X1855063Y11455400D01*
X2005736Y11455400D02*
G01*
X2018436Y11442700D01*
X2705963Y11442700D01*
X1855061Y11455400D02*
G01*
X1854200Y11455400D01*
X1854200Y11804497D01*
X1854200Y11944604D02*
G01*
X2856738Y11944604D01*
X2856738Y11684000D01*
X6708902Y9525000D02*
G01*
X6708902Y9029700D01*
X6464300Y9029700D01*
X6464300Y11684000D01*
X2856738Y11684000D01*
X2856738Y11442700D01*
X1104900Y10324236D02*
G01*
X1104900Y10642605D01*
X1206500Y10744205D01*
X1104900Y9703663D02*
G01*
X1460497Y9703663D01*
X1460500Y9703661D01*
X1460500Y9854336D02*
G01*
X1460500Y10744205D01*
X1104900Y10173561D02*
G01*
X1104900Y9854336D01*
X2095500Y9398000D02*
G01*
X1739900Y9398000D01*
X2349500Y9398000D02*
G01*
X2349500Y9779000D01*
X2292604Y9779000D01*
X2095500Y9398000D02*
G01*
X2095500Y9779000D01*
X2152395Y9779000D01*
X2742488Y9150095D02*
G01*
X2494584Y9398000D01*
X2349500Y9398000D01*
X2604211Y8051800D02*
G01*
X2604211Y8357311D01*
X2971800Y8724900D01*
X2972506Y8736886D01*
X2972506Y9055100D01*
X2972511Y9055100D02*
G01*
X2972511Y10160000D01*
X2958947Y10173563D01*
X2235200Y10173563D01*
X2604211Y8344611D02*
G01*
X2630322Y8318500D01*
X3237814Y8318500D01*
X3454400Y7239000D02*
G01*
X3467811Y7252411D01*
X3467811Y8223504D01*
X3435604Y6832600D02*
G01*
X3454400Y6851395D01*
X3454400Y7239000D01*
X3200400Y7239000D02*
G01*
X3200400Y6832600D01*
X3295395Y6832600D01*
X2629661Y6235700D02*
G01*
X2629661Y8051800D01*
X2604261Y8051800D01*
X3200400Y7239000D02*
G01*
X3200400Y7581900D01*
X2794000Y7581900D01*
X2139797Y7213600D02*
G01*
X2139797Y7581900D01*
X2425700Y7581900D01*
X3275888Y6159500D02*
G01*
X2629611Y6159500D01*
X3505911Y6064504D02*
G01*
X3842715Y5727700D01*
X4114800Y5727700D01*
X4114800Y5727700D02*
G01*
X4140200Y5702300D01*
X4851400Y5702300D01*
X4851400Y5797295D01*
X4114800Y5981700D02*
G01*
X4140200Y6007100D01*
X4851400Y6007100D01*
X4851400Y5937504D01*
X3404306Y8960104D02*
G01*
X3436310Y8928100D01*
X3771900Y8928100D01*
X3771900Y8928100D02*
G01*
X4216400Y8928100D01*
X4216400Y8871102D01*
X3771900Y8674100D02*
G01*
X4216400Y8674100D01*
X4216400Y8731097D01*
X3295502Y6832600D02*
G01*
X3295502Y6565900D01*
X4851400Y6553200D01*
X4851400Y6502400D01*
X4851400Y5937397D01*
X3531306Y9722104D02*
G01*
X3537910Y9715500D01*
X3949700Y9715500D01*
X3301288Y9817100D02*
G01*
X2958950Y9817100D01*
X2958950Y10173561D01*
X3949700Y9715500D02*
G01*
X4356100Y9715500D01*
X4356100Y9633102D01*
X3949700Y9461500D02*
G01*
X4356100Y9461500D01*
X4356100Y9493097D01*
X2972506Y9055100D02*
G01*
X3174314Y9055100D01*
X4216400Y6558279D02*
G01*
X4216400Y6995419D01*
X4216400Y8731097D01*
X4216400Y8730995D02*
G01*
X4927600Y8730995D01*
X4927600Y9492995D01*
X4356100Y9492995D01*
X2972506Y10160000D02*
G01*
X2971800Y10426700D01*
X3187700Y10642600D01*
X3288588Y10642600D01*
X4470400Y10331302D02*
G01*
X4476897Y10337800D01*
X4800600Y10337800D01*
X4808059Y10330340D01*
X4808059Y9492995D01*
X3518611Y10547604D02*
G01*
X3550615Y10515600D01*
X3911600Y10515600D01*
X4470400Y10471307D02*
G01*
X4426107Y10515600D01*
X3911600Y10515600D01*
X3911600Y10261600D02*
G01*
X4470400Y10261600D01*
X4470400Y10331195D01*
X3467811Y8413495D02*
G01*
X3467811Y8413495D01*
X4000500Y8394700D01*
X5914897Y9779000D02*
G01*
X5927597Y9791700D01*
X6070600Y9791700D01*
X6070600Y8394700D01*
X6057900Y8407400D01*
X5275199Y8407400D01*
X4457700Y8407400D02*
G01*
X5275199Y8407400D01*
D11*
G01*
X1854200Y11804500D03*
G01*
X1854200Y11944499D03*
D12*
G01*
X4216400Y8871099D03*
G01*
X4216400Y8731100D03*
G01*
X4470400Y10471299D03*
G01*
X4470400Y10331300D03*
G01*
X4356100Y9633099D03*
G01*
X4356100Y9493100D03*
D11*
G01*
X4851400Y5797400D03*
G01*
X4851400Y5937399D03*
D13*
G01*
X3435499Y6832600D03*
G01*
X3295500Y6832600D03*
G01*
X2292499Y9779000D03*
G01*
X2152500Y9779000D03*
G01*
X2279799Y8851900D03*
G01*
X2139800Y8851900D03*
G01*
X2279799Y7213600D03*
G01*
X2139800Y7213600D03*
G01*
X1212700Y6146800D03*
G01*
X1352699Y6146800D03*
G01*
X1200000Y7759700D03*
G01*
X1339999Y7759700D03*
D14*
G01*
X3518603Y10547604D03*
G01*
X3288601Y10642600D03*
G01*
X3518601Y10737606D03*
G01*
X3531303Y9722104D03*
G01*
X3301301Y9817100D03*
G01*
X3531301Y9912106D03*
G01*
X3404303Y8960104D03*
G01*
X3174301Y9055100D03*
G01*
X3404301Y9150106D03*
G01*
X3505903Y6064504D03*
G01*
X3275901Y6159500D03*
G01*
X3505901Y6254506D03*
G01*
X3467803Y8223503D03*
G01*
X3237801Y8318500D03*
G01*
X3467801Y8413506D03*
G01*
X2742496Y9150096D03*
G01*
X2972498Y9055100D03*
G01*
X2742498Y8960093D03*
G01*
X2374196Y8146796D03*
G01*
X2604198Y8051800D03*
G01*
X2374198Y7956793D03*
G01*
X2399596Y6330696D03*
G01*
X2629598Y6235700D03*
G01*
X2399598Y6140693D03*
G01*
X1143703Y7245603D03*
G01*
X913701Y7340600D03*
G01*
X1143701Y7435606D03*
G01*
X1143703Y8909304D03*
G01*
X913701Y9004300D03*
G01*
X1143701Y9099306D03*
D15*
G01*
X1460500Y9703663D03*
D16*
G01*
X1460500Y9854324D03*
D15*
G01*
X1104900Y9854336D03*
D16*
G01*
X1104900Y9703675D03*
D15*
G01*
X1104900Y10324236D03*
D16*
G01*
X1104900Y10173575D03*
D17*
G01*
X1207375Y11455400D03*
G01*
X1358024Y11455400D03*
G01*
X1855075Y11455400D03*
G01*
X2005724Y11455400D03*
G01*
X2705975Y11442700D03*
G01*
X2856624Y11442700D03*
D15*
G01*
X2235200Y10173563D03*
D16*
G01*
X2235200Y10324224D03*
G36*
X4889500Y11176000D02*
G01*
X5041900Y11176000D01*
X5041900Y11036300D01*
X4889500Y11036300D01*
G37*
G36*
X4902200Y10858500D02*
G01*
X5054600Y10858500D01*
X5054600Y10718800D01*
X4902200Y10718800D01*
G37*
G36*
X2705100Y7683500D02*
G01*
X2882900Y7683500D01*
X2882900Y7493000D01*
X2705100Y7493000D01*
G37*
G36*
X2362200Y7683500D02*
G01*
X2540000Y7683500D01*
X2540000Y7493000D01*
X2362200Y7493000D01*
G37*
G36*
X3937000Y8464550D02*
G01*
X4114800Y8464550D01*
X4114800Y8299450D01*
X3937000Y8299450D01*
G37*
G36*
X4318000Y8477250D02*
G01*
X4495800Y8477250D01*
X4495800Y8312150D01*
X4318000Y8312150D01*
G37*
D19*
G01*
X1206500Y10744200D03*
G01*
X1460500Y10744200D03*
G01*
X1714500Y10744200D03*
G01*
X1968500Y10744200D03*
G01*
X2222500Y10744200D03*
D20*
G01*
X6708905Y11302998D03*
D21*
G01*
X6708902Y11049000D03*
G01*
X6708902Y9779000D03*
G01*
X6708902Y9525000D03*
G01*
X6708902Y10795000D03*
G01*
X6708902Y10541000D03*
G01*
X6708902Y10033000D03*
G01*
X6708902Y10287000D03*
G01*
X5914897Y9525000D03*
G01*
X5914897Y9779000D03*
G01*
X5914897Y10033000D03*
G01*
X5914897Y10287000D03*
G01*
X5914897Y10541000D03*
G01*
X5914897Y10795000D03*
G01*
X5914897Y11049000D03*
G01*
X5914897Y11303000D03*
D22*
G01*
X3771900Y8928100D03*
D23*
G01*
X3771900Y8674100D03*
D22*
G01*
X3911600Y10515600D03*
D23*
G01*
X3911600Y10261600D03*
D22*
G01*
X3949700Y9715500D03*
D23*
G01*
X3949700Y9461500D03*
D22*
G01*
X4114800Y5727700D03*
D23*
G01*
X4114800Y5981700D03*
D24*
G01*
X3454400Y7239000D03*
D23*
G01*
X3200400Y7239000D03*
D24*
G01*
X2349500Y9398000D03*
D23*
G01*
X2095500Y9398000D03*
D24*
G01*
X2336800Y8356600D03*
D23*
G01*
X2082800Y8356600D03*
D24*
G01*
X2374900Y6743700D03*
D23*
G01*
X2120900Y6743700D03*
D25*
G01*
X1155700Y6692900D03*
D23*
G01*
X1409700Y6692900D03*
D25*
G01*
X1143000Y8343900D03*
D23*
G01*
X1397000Y8343900D03*
M02*
