%TF.GenerationSoftware,KiCad,Pcbnew,10.0.5*%
%TF.CreationDate,2026-08-29T17:27:03+02:00*%
%TF.ProjectId,board,626f6172-642e-46b6-9963-61645f706362,rev?*%
%TF.SameCoordinates,Original*%
%TF.FileFunction,Copper,L1,Top*%
%TF.FilePolarity,Positive*%
%FSLAX46Y46*%
G04 Gerber Fmt 4.6, Leading zero omitted, Abs format (unit mm)*
G04 Created by KiCad (PCBNEW 10.0.5) date 2026-08-29 17:27:03*
%MOMM*%
%LPD*%
G01*
G04 APERTURE LIST*
G04 Aperture macros list*
%AMRoundRect*
0 Rectangle with rounded corners*
0 $1 Rounding radius*
0 $2 $3 $4 $5 $6 $7 $8 $9 X,Y pos of 4 corners*
0 Add a 4 corners polygon primitive as box body*
4,1,4,$2,$3,$4,$5,$6,$7,$8,$9,$2,$3,0*
0 Add four circle primitives for the rounded corners*
1,1,$1+$1,$2,$3*
1,1,$1+$1,$4,$5*
1,1,$1+$1,$6,$7*
1,1,$1+$1,$8,$9*
0 Add four rect primitives between the rounded corners*
20,1,$1+$1,$2,$3,$4,$5,0*
20,1,$1+$1,$4,$5,$6,$7,0*
20,1,$1+$1,$6,$7,$8,$9,0*
20,1,$1+$1,$8,$9,$2,$3,0*%
G04 Aperture macros list end*
%TA.AperFunction,NonConductor*%
%ADD10C,0.200000*%
%TD*%
%ADD11C,0.150000*%
%TA.AperFunction,NonConductor*%
%ADD12C,0.150000*%
%TD*%
%TA.AperFunction,ComponentPad*%
%ADD13R,1.800000X1.800000*%
%TD*%
%TA.AperFunction,ComponentPad*%
%ADD14C,1.800000*%
%TD*%
%TA.AperFunction,ComponentPad*%
%ADD15RoundRect,0.250000X-0.550000X0.550000X-0.550000X-0.550000X0.550000X-0.550000X0.550000X0.550000X0*%
%TD*%
%TA.AperFunction,ComponentPad*%
%ADD16C,1.600000*%
%TD*%
%TA.AperFunction,ComponentPad*%
%ADD17C,2.000000*%
%TD*%
%TA.AperFunction,ComponentPad*%
%ADD18RoundRect,0.250000X0.550000X-0.550000X0.550000X0.550000X-0.550000X0.550000X-0.550000X-0.550000X0*%
%TD*%
%TA.AperFunction,ComponentPad*%
%ADD19R,1.600000X1.600000*%
%TD*%
%TA.AperFunction,ComponentPad*%
%ADD20O,1.600000X1.600000*%
%TD*%
%TA.AperFunction,ViaPad*%
%ADD21C,0.600000*%
%TD*%
%TA.AperFunction,Conductor*%
%ADD22C,0.600000*%
%TD*%
%TA.AperFunction,Conductor*%
%ADD23C,0.200000*%
%TD*%
%TA.AperFunction,Conductor*%
%ADD24C,0.700000*%
%TD*%
%TA.AperFunction,Conductor*%
%ADD25C,0.800000*%
%TD*%
%TA.AperFunction,Conductor*%
%ADD26C,0.500000*%
%TD*%
G04 APERTURE END LIST*
D10*
X204500000Y-53000000D02*
X204500000Y-77000000D01*
X204500000Y-90500000D02*
X204500000Y-108500000D01*
X258000000Y-53000000D02*
X214500000Y-53000000D01*
X258000000Y-108500000D02*
X204500000Y-108500000D01*
X258000000Y-108500000D02*
X258000000Y-53000000D01*
D11*
D12*
X211054692Y-107091792D02*
X211102312Y-107139411D01*
X211102312Y-107139411D02*
X211149931Y-107282268D01*
X211149931Y-107282268D02*
X211149931Y-107377506D01*
X211149931Y-107377506D02*
X211102312Y-107520363D01*
X211102312Y-107520363D02*
X211007073Y-107615601D01*
X211007073Y-107615601D02*
X210911835Y-107663220D01*
X210911835Y-107663220D02*
X210721359Y-107710839D01*
X210721359Y-107710839D02*
X210578502Y-107710839D01*
X210578502Y-107710839D02*
X210388026Y-107663220D01*
X210388026Y-107663220D02*
X210292788Y-107615601D01*
X210292788Y-107615601D02*
X210197550Y-107520363D01*
X210197550Y-107520363D02*
X210149931Y-107377506D01*
X210149931Y-107377506D02*
X210149931Y-107282268D01*
X210149931Y-107282268D02*
X210197550Y-107139411D01*
X210197550Y-107139411D02*
X210245169Y-107091792D01*
X210483264Y-106663220D02*
X211149931Y-106663220D01*
X210578502Y-106663220D02*
X210530883Y-106615601D01*
X210530883Y-106615601D02*
X210483264Y-106520363D01*
X210483264Y-106520363D02*
X210483264Y-106377506D01*
X210483264Y-106377506D02*
X210530883Y-106282268D01*
X210530883Y-106282268D02*
X210626121Y-106234649D01*
X210626121Y-106234649D02*
X211149931Y-106234649D01*
X211102312Y-105329887D02*
X211149931Y-105425125D01*
X211149931Y-105425125D02*
X211149931Y-105615601D01*
X211149931Y-105615601D02*
X211102312Y-105710839D01*
X211102312Y-105710839D02*
X211054692Y-105758458D01*
X211054692Y-105758458D02*
X210959454Y-105806077D01*
X210959454Y-105806077D02*
X210673740Y-105806077D01*
X210673740Y-105806077D02*
X210578502Y-105758458D01*
X210578502Y-105758458D02*
X210530883Y-105710839D01*
X210530883Y-105710839D02*
X210483264Y-105615601D01*
X210483264Y-105615601D02*
X210483264Y-105425125D01*
X210483264Y-105425125D02*
X210530883Y-105329887D01*
X212712256Y-107234649D02*
X212759875Y-107329887D01*
X212759875Y-107329887D02*
X212759875Y-107520363D01*
X212759875Y-107520363D02*
X212712256Y-107615601D01*
X212712256Y-107615601D02*
X212664636Y-107663220D01*
X212664636Y-107663220D02*
X212569398Y-107710839D01*
X212569398Y-107710839D02*
X212283684Y-107710839D01*
X212283684Y-107710839D02*
X212188446Y-107663220D01*
X212188446Y-107663220D02*
X212140827Y-107615601D01*
X212140827Y-107615601D02*
X212093208Y-107520363D01*
X212093208Y-107520363D02*
X212093208Y-107329887D01*
X212093208Y-107329887D02*
X212140827Y-107234649D01*
X212759875Y-106663220D02*
X212712256Y-106758458D01*
X212712256Y-106758458D02*
X212664636Y-106806077D01*
X212664636Y-106806077D02*
X212569398Y-106853696D01*
X212569398Y-106853696D02*
X212283684Y-106853696D01*
X212283684Y-106853696D02*
X212188446Y-106806077D01*
X212188446Y-106806077D02*
X212140827Y-106758458D01*
X212140827Y-106758458D02*
X212093208Y-106663220D01*
X212093208Y-106663220D02*
X212093208Y-106520363D01*
X212093208Y-106520363D02*
X212140827Y-106425125D01*
X212140827Y-106425125D02*
X212188446Y-106377506D01*
X212188446Y-106377506D02*
X212283684Y-106329887D01*
X212283684Y-106329887D02*
X212569398Y-106329887D01*
X212569398Y-106329887D02*
X212664636Y-106377506D01*
X212664636Y-106377506D02*
X212712256Y-106425125D01*
X212712256Y-106425125D02*
X212759875Y-106520363D01*
X212759875Y-106520363D02*
X212759875Y-106663220D01*
X212093208Y-105901315D02*
X212759875Y-105901315D01*
X212188446Y-105901315D02*
X212140827Y-105853696D01*
X212140827Y-105853696D02*
X212093208Y-105758458D01*
X212093208Y-105758458D02*
X212093208Y-105615601D01*
X212093208Y-105615601D02*
X212140827Y-105520363D01*
X212140827Y-105520363D02*
X212236065Y-105472744D01*
X212236065Y-105472744D02*
X212759875Y-105472744D01*
X212093208Y-105139410D02*
X212093208Y-104758458D01*
X211759875Y-104996553D02*
X212617017Y-104996553D01*
X212617017Y-104996553D02*
X212712256Y-104948934D01*
X212712256Y-104948934D02*
X212759875Y-104853696D01*
X212759875Y-104853696D02*
X212759875Y-104758458D01*
X212759875Y-104425124D02*
X212093208Y-104425124D01*
X212283684Y-104425124D02*
X212188446Y-104377505D01*
X212188446Y-104377505D02*
X212140827Y-104329886D01*
X212140827Y-104329886D02*
X212093208Y-104234648D01*
X212093208Y-104234648D02*
X212093208Y-104139410D01*
X212759875Y-103663219D02*
X212712256Y-103758457D01*
X212712256Y-103758457D02*
X212664636Y-103806076D01*
X212664636Y-103806076D02*
X212569398Y-103853695D01*
X212569398Y-103853695D02*
X212283684Y-103853695D01*
X212283684Y-103853695D02*
X212188446Y-103806076D01*
X212188446Y-103806076D02*
X212140827Y-103758457D01*
X212140827Y-103758457D02*
X212093208Y-103663219D01*
X212093208Y-103663219D02*
X212093208Y-103520362D01*
X212093208Y-103520362D02*
X212140827Y-103425124D01*
X212140827Y-103425124D02*
X212188446Y-103377505D01*
X212188446Y-103377505D02*
X212283684Y-103329886D01*
X212283684Y-103329886D02*
X212569398Y-103329886D01*
X212569398Y-103329886D02*
X212664636Y-103377505D01*
X212664636Y-103377505D02*
X212712256Y-103425124D01*
X212712256Y-103425124D02*
X212759875Y-103520362D01*
X212759875Y-103520362D02*
X212759875Y-103663219D01*
X212759875Y-102758457D02*
X212712256Y-102853695D01*
X212712256Y-102853695D02*
X212617017Y-102901314D01*
X212617017Y-102901314D02*
X211759875Y-102901314D01*
X213703152Y-107663220D02*
X214703152Y-107663220D01*
X213750771Y-107663220D02*
X213703152Y-107567982D01*
X213703152Y-107567982D02*
X213703152Y-107377506D01*
X213703152Y-107377506D02*
X213750771Y-107282268D01*
X213750771Y-107282268D02*
X213798390Y-107234649D01*
X213798390Y-107234649D02*
X213893628Y-107187030D01*
X213893628Y-107187030D02*
X214179342Y-107187030D01*
X214179342Y-107187030D02*
X214274580Y-107234649D01*
X214274580Y-107234649D02*
X214322200Y-107282268D01*
X214322200Y-107282268D02*
X214369819Y-107377506D01*
X214369819Y-107377506D02*
X214369819Y-107567982D01*
X214369819Y-107567982D02*
X214322200Y-107663220D01*
X214369819Y-106329887D02*
X213846009Y-106329887D01*
X213846009Y-106329887D02*
X213750771Y-106377506D01*
X213750771Y-106377506D02*
X213703152Y-106472744D01*
X213703152Y-106472744D02*
X213703152Y-106663220D01*
X213703152Y-106663220D02*
X213750771Y-106758458D01*
X214322200Y-106329887D02*
X214369819Y-106425125D01*
X214369819Y-106425125D02*
X214369819Y-106663220D01*
X214369819Y-106663220D02*
X214322200Y-106758458D01*
X214322200Y-106758458D02*
X214226961Y-106806077D01*
X214226961Y-106806077D02*
X214131723Y-106806077D01*
X214131723Y-106806077D02*
X214036485Y-106758458D01*
X214036485Y-106758458D02*
X213988866Y-106663220D01*
X213988866Y-106663220D02*
X213988866Y-106425125D01*
X213988866Y-106425125D02*
X213941247Y-106329887D01*
X213703152Y-105853696D02*
X214369819Y-105853696D01*
X213798390Y-105853696D02*
X213750771Y-105806077D01*
X213750771Y-105806077D02*
X213703152Y-105710839D01*
X213703152Y-105710839D02*
X213703152Y-105567982D01*
X213703152Y-105567982D02*
X213750771Y-105472744D01*
X213750771Y-105472744D02*
X213846009Y-105425125D01*
X213846009Y-105425125D02*
X214369819Y-105425125D01*
X214322200Y-104567982D02*
X214369819Y-104663220D01*
X214369819Y-104663220D02*
X214369819Y-104853696D01*
X214369819Y-104853696D02*
X214322200Y-104948934D01*
X214322200Y-104948934D02*
X214226961Y-104996553D01*
X214226961Y-104996553D02*
X213846009Y-104996553D01*
X213846009Y-104996553D02*
X213750771Y-104948934D01*
X213750771Y-104948934D02*
X213703152Y-104853696D01*
X213703152Y-104853696D02*
X213703152Y-104663220D01*
X213703152Y-104663220D02*
X213750771Y-104567982D01*
X213750771Y-104567982D02*
X213846009Y-104520363D01*
X213846009Y-104520363D02*
X213941247Y-104520363D01*
X213941247Y-104520363D02*
X214036485Y-104996553D01*
X214369819Y-103948934D02*
X214322200Y-104044172D01*
X214322200Y-104044172D02*
X214226961Y-104091791D01*
X214226961Y-104091791D02*
X213369819Y-104091791D01*
D13*
%TO.P,D1,1,K_1*%
%TO.N,Net-(D1-K)*%
X205580000Y-87270000D03*
D14*
%TO.P,D1,2,A_2*%
%TO.N,Net-(D1-A)*%
X205580000Y-84730000D03*
%TD*%
D15*
%TO.P,C1,1*%
%TO.N,Net-(A1-D10{slash}CS)*%
X256500000Y-68445000D03*
D16*
%TO.P,C1,2*%
%TO.N,Net-(D1-K)*%
X256500000Y-73445000D03*
%TD*%
D17*
%TO.P,Xdir1,1,1_1*%
%TO.N,Net-(A1-D5)*%
X244000000Y-80714285D03*
%TD*%
%TO.P,Enable1,1,1_1*%
%TO.N,Net-(A1-D3)*%
X244000000Y-89428571D03*
%TD*%
%TO.P,Ystep1,1,1_1*%
%TO.N,Net-(A1-D6)*%
X244000000Y-76357142D03*
%TD*%
D18*
%TO.P,Zmax1,1,1_1*%
%TO.N,Net-(D1-K)*%
X206500000Y-73620000D03*
D16*
%TO.P,Zmax1,2,2_2*%
%TO.N,Net-(A1-A1)*%
X206500000Y-66000000D03*
%TD*%
D18*
%TO.P,Ymax1,1,1_1*%
%TO.N,Net-(D1-K)*%
X242540385Y-107000000D03*
D16*
%TO.P,Ymax1,2,2_2*%
%TO.N,Net-(A1-SDA{slash}A4)*%
X242540385Y-99380000D03*
%TD*%
D17*
%TO.P,5Vacces1,1,1_1*%
%TO.N,Net-(A1-VUSB{slash}5V)*%
X219000000Y-87500000D03*
%TD*%
D18*
%TO.P,Xmin1,1,1_1*%
%TO.N,Net-(D1-K)*%
X250000000Y-73250000D03*
D16*
%TO.P,Xmin1,2,2_2*%
%TO.N,Net-(A1-D10{slash}CS)*%
X250000000Y-65630000D03*
%TD*%
D17*
%TO.P,Ydir1,1,1_1*%
%TO.N,Net-(A1-D7)*%
X244000000Y-72000000D03*
%TD*%
%TO.P,Pwm2,1,1_1*%
%TO.N,Net-(D1-K)*%
X249500000Y-79130000D03*
%TD*%
D15*
%TO.P,C4,1*%
%TO.N,Net-(A1-SDA{slash}A4)*%
X251798077Y-102195000D03*
D16*
%TO.P,C4,2*%
%TO.N,Net-(D1-K)*%
X251798077Y-107195000D03*
%TD*%
D18*
%TO.P,Ymin1,1,1_1*%
%TO.N,Net-(D1-K)*%
X206500000Y-100120000D03*
D16*
%TO.P,Ymin1,2,2_2*%
%TO.N,Net-(A1-A3)*%
X206500000Y-92500000D03*
%TD*%
D15*
%TO.P,C5,1*%
%TO.N,Net-(A1-A0)*%
X215757692Y-56815000D03*
D16*
%TO.P,C5,2*%
%TO.N,Net-(D1-K)*%
X215757692Y-61815000D03*
%TD*%
D17*
%TO.P,Pwm1,1,1_1*%
%TO.N,Net-(A1-D11{slash}COPI)*%
X244000000Y-55500000D03*
%TD*%
D19*
%TO.P,A1,1,D1/TX_1*%
%TO.N,unconnected-(A1-D1{slash}TX-Pad1)*%
X238110000Y-95050000D03*
D20*
%TO.P,A1,2,D0/RX_2*%
%TO.N,unconnected-(A1-D0{slash}RX-Pad2)*%
X238110000Y-92510000D03*
%TO.P,A1,3,~{RESET}_3*%
%TO.N,unconnected-(A1-~{RESET}-Pad3)*%
X238110000Y-89970000D03*
%TO.P,A1,4,GND_4*%
%TO.N,Net-(D1-K)*%
X238110000Y-87430000D03*
%TO.P,A1,5,D2_5*%
%TO.N,Net-(A1-D2)*%
X238110000Y-84890000D03*
%TO.P,A1,6,D3_6*%
%TO.N,Net-(A1-D3)*%
X238110000Y-82350000D03*
%TO.P,A1,7,D4_7*%
%TO.N,Net-(A1-D4)*%
X238110000Y-79810000D03*
%TO.P,A1,8,D5_8*%
%TO.N,Net-(A1-D5)*%
X238110000Y-77270000D03*
%TO.P,A1,9,D6_9*%
%TO.N,Net-(A1-D6)*%
X238110000Y-74730000D03*
%TO.P,A1,10,D7_10*%
%TO.N,Net-(A1-D7)*%
X238110000Y-72190000D03*
%TO.P,A1,11,D8_11*%
%TO.N,Net-(A1-D8)*%
X238110000Y-69650000D03*
%TO.P,A1,12,D9_12*%
%TO.N,Net-(A1-D9)*%
X238110000Y-67110000D03*
%TO.P,A1,13,D10/CS_13*%
%TO.N,Net-(A1-D10{slash}CS)*%
X238110000Y-64570000D03*
%TO.P,A1,14,D11/COPI_14*%
%TO.N,Net-(A1-D11{slash}COPI)*%
X238110000Y-62030000D03*
%TO.P,A1,15,D12/CIPO_15*%
%TO.N,unconnected-(A1-D12{slash}CIPO-Pad15)*%
X238110000Y-59490000D03*
%TO.P,A1,16,D13/SCK_16*%
%TO.N,unconnected-(A1-D13{slash}SCK-Pad16)*%
X222870000Y-59490000D03*
%TO.P,A1,17,3V3_17*%
%TO.N,unconnected-(A1-3V3-Pad17)*%
X222870000Y-62030000D03*
%TO.P,A1,18,REF_18*%
%TO.N,unconnected-(A1-REF-Pad18)*%
X222870000Y-64570000D03*
%TO.P,A1,19,A0_19*%
%TO.N,Net-(A1-A0)*%
X222870000Y-67110000D03*
%TO.P,A1,20,A1_20*%
%TO.N,Net-(A1-A1)*%
X222870000Y-69650000D03*
%TO.P,A1,21,A2_21*%
%TO.N,Net-(A1-A2)*%
X222870000Y-72190000D03*
%TO.P,A1,22,A3_22*%
%TO.N,Net-(A1-A3)*%
X222870000Y-74730000D03*
%TO.P,A1,23,SDA/A4_23*%
%TO.N,Net-(A1-SDA{slash}A4)*%
X222870000Y-77270000D03*
%TO.P,A1,24,SCL/A5_24*%
%TO.N,Net-(A1-SCL{slash}A5)*%
X222870000Y-79810000D03*
%TO.P,A1,25,A6_25*%
%TO.N,unconnected-(A1-A6-Pad25)*%
X222870000Y-82350000D03*
%TO.P,A1,26,A7_26*%
%TO.N,unconnected-(A1-A7-Pad26)*%
X222870000Y-84890000D03*
%TO.P,A1,27,VUSB/5V_27*%
%TO.N,Net-(A1-VUSB{slash}5V)*%
X222870000Y-87430000D03*
%TO.P,A1,28,REC_28*%
%TO.N,unconnected-(A1-REC-Pad28)*%
X222870000Y-89970000D03*
%TO.P,A1,29,GND_29*%
%TO.N,Net-(D1-K)*%
X222870000Y-92510000D03*
%TO.P,A1,30,VIN_30*%
%TO.N,unconnected-(A1-VIN-Pad30)*%
X222870000Y-95050000D03*
%TD*%
D18*
%TO.P,Zmin1,1,1_1*%
%TO.N,Net-(D1-K)*%
X206500000Y-61620000D03*
D16*
%TO.P,Zmin1,2,2_2*%
%TO.N,Net-(A1-A0)*%
X206500000Y-54000000D03*
%TD*%
%TO.P,R1,1*%
%TO.N,Net-(A1-SCL{slash}A5)*%
X215580000Y-80000000D03*
%TO.P,R1,2*%
%TO.N,Net-(D1-A)*%
X205420000Y-80000000D03*
%TD*%
D15*
%TO.P,C2,1*%
%TO.N,Net-(A1-A2)*%
X233257692Y-102195000D03*
D16*
%TO.P,C2,2*%
%TO.N,Net-(D1-K)*%
X233257692Y-107195000D03*
%TD*%
D17*
%TO.P,Zstep1,1,1_1*%
%TO.N,Net-(A1-D8)*%
X244000000Y-67642857D03*
%TD*%
D18*
%TO.P,C7,1*%
%TO.N,Net-(D1-K)*%
X255500000Y-93630000D03*
D16*
%TO.P,C7,2*%
%TO.N,Net-(A1-D2)*%
X255500000Y-88630000D03*
%TD*%
D17*
%TO.P,Zdir1,1,1_1*%
%TO.N,Net-(A1-D9)*%
X244000000Y-63285714D03*
%TD*%
D15*
%TO.P,C6,1*%
%TO.N,Net-(A1-A1)*%
X215757693Y-68815000D03*
D16*
%TO.P,C6,2*%
%TO.N,Net-(D1-K)*%
X215757693Y-73815000D03*
%TD*%
D18*
%TO.P,Xmax1,1,1_1*%
%TO.N,Net-(D1-K)*%
X224000000Y-107000000D03*
D16*
%TO.P,Xmax1,2,2_2*%
%TO.N,Net-(A1-A2)*%
X224000000Y-99380000D03*
%TD*%
D15*
%TO.P,Estop1,1,1_1*%
%TO.N,Net-(A1-D2)*%
X249500000Y-85630000D03*
D16*
%TO.P,Estop1,2,2_2*%
%TO.N,Net-(D1-K)*%
X249500000Y-93250000D03*
%TD*%
D17*
%TO.P,Xstep1,1,1_1*%
%TO.N,Net-(A1-D4)*%
X244000000Y-85071428D03*
%TD*%
D15*
%TO.P,C3,1*%
%TO.N,Net-(A1-A3)*%
X215757693Y-95315000D03*
D16*
%TO.P,C3,2*%
%TO.N,Net-(D1-K)*%
X215757693Y-100315000D03*
%TD*%
D21*
%TO.N,*%
X256000000Y-107000000D03*
X255000000Y-55000000D03*
X206000000Y-106500000D03*
%TD*%
%TO.N,*%
D22*
X208500000Y-107000000D02*
X207500000Y-108000000D01*
D23*
X204500000Y-108500000D02*
X204500000Y-91000000D01*
D22*
X206000000Y-68500000D02*
X205000000Y-67500000D01*
D23*
X204500000Y-91000000D02*
X205000000Y-90500000D01*
X207000000Y-108500000D02*
X204500000Y-108500000D01*
D22*
X205000000Y-64000000D02*
X205500000Y-63500000D01*
D23*
X207500000Y-108000000D02*
X207000000Y-108500000D01*
D22*
X206000000Y-89500000D02*
X205000000Y-90500000D01*
X205500000Y-63500000D02*
X206000000Y-63500000D01*
X205000000Y-67500000D02*
X205000000Y-64000000D01*
%TO.N,Net-(D1-K)*%
D24*
X233062692Y-107000000D02*
X224000000Y-107000000D01*
D23*
X250250000Y-73500000D02*
X250000000Y-73250000D01*
X206695000Y-100315000D02*
X206500000Y-100120000D01*
X224000000Y-107000000D02*
X224000000Y-106437307D01*
X249500000Y-93250000D02*
X249500000Y-93130000D01*
X206695000Y-73815000D02*
X206500000Y-73620000D01*
D22*
X257000000Y-93130000D02*
X257000000Y-84500000D01*
D23*
X206380000Y-73500000D02*
X206500000Y-73620000D01*
X206695000Y-61815000D02*
X206500000Y-61620000D01*
X242345385Y-107195000D02*
X242540385Y-107000000D01*
X249500000Y-73750000D02*
X250000000Y-73250000D01*
X256500000Y-73445000D02*
X256500000Y-73500000D01*
X251603077Y-107000000D02*
X251798077Y-107195000D01*
D25*
X256500000Y-93630000D02*
X257000000Y-93130000D01*
D26*
X255500000Y-93630000D02*
X256500000Y-93630000D01*
D25*
X257000000Y-84500000D02*
X251630000Y-79130000D01*
D23*
X249880000Y-93630000D02*
X249500000Y-93250000D01*
D26*
X256500000Y-73500000D02*
X250250000Y-73500000D01*
D23*
X233062692Y-107000000D02*
X233257692Y-107195000D01*
D25*
X251630000Y-79130000D02*
X249500000Y-79130000D01*
D24*
X233257692Y-107195000D02*
X242345385Y-107195000D01*
%TO.N,Net-(D1-A)*%
D23*
X205420000Y-84570000D02*
X205580000Y-84730000D01*
D25*
X205420000Y-80000000D02*
X205420000Y-84570000D01*
%TO.N,Net-(A1-D10{slash}CS)*%
X238500000Y-64500000D02*
X244000000Y-59000000D01*
D23*
X256500000Y-68445000D02*
X255815000Y-68445000D01*
D25*
X255815000Y-68445000D02*
X253000000Y-65630000D01*
D23*
X238070000Y-64570000D02*
X238000000Y-64500000D01*
X238110000Y-64570000D02*
X238070000Y-64570000D01*
D25*
X244000000Y-59000000D02*
X247870000Y-59000000D01*
X238000000Y-64500000D02*
X238500000Y-64500000D01*
X253000000Y-65630000D02*
X250000000Y-65630000D01*
X247870000Y-59000000D02*
X250000000Y-61130000D01*
X250000000Y-61130000D02*
X250000000Y-65630000D01*
%TO.N,Net-(A1-D5)*%
X244000000Y-80714285D02*
X240555715Y-77270000D01*
X240555715Y-77270000D02*
X238110000Y-77270000D01*
%TO.N,Net-(A1-D3)*%
D23*
X244000000Y-89428571D02*
X244000000Y-88240000D01*
D25*
X244000000Y-88240000D02*
X238110000Y-82350000D01*
%TO.N,Net-(A1-D6)*%
X244000000Y-76357142D02*
X242372858Y-74730000D01*
X242372858Y-74730000D02*
X238110000Y-74730000D01*
%TO.N,Net-(A1-A1)*%
D23*
X222870000Y-69630000D02*
X223000000Y-69500000D01*
X222870000Y-69650000D02*
X222870000Y-69630000D01*
D25*
X212500000Y-66000000D02*
X206500000Y-66000000D01*
D23*
X215757693Y-68815000D02*
X215315000Y-68815000D01*
D25*
X215315000Y-68815000D02*
X212500000Y-66000000D01*
X216442693Y-69500000D02*
X215757693Y-68815000D01*
X223000000Y-69500000D02*
X216442693Y-69500000D01*
%TO.N,Net-(A1-SDA{slash}A4)*%
X215500000Y-85000000D02*
X215500000Y-89500000D01*
X213000000Y-82500000D02*
X215500000Y-85000000D01*
X215500000Y-89500000D02*
X219500000Y-93500000D01*
X219500000Y-100380000D02*
X224000000Y-104880000D01*
D23*
X242000000Y-99380000D02*
X242540385Y-99380000D01*
D25*
X251798077Y-102195000D02*
X245355385Y-102195000D01*
X213000000Y-78000000D02*
X213000000Y-82500000D01*
X236500000Y-104880000D02*
X242000000Y-99380000D01*
X245355385Y-102195000D02*
X242540385Y-99380000D01*
X222140000Y-78000000D02*
X213000000Y-78000000D01*
X222870000Y-77270000D02*
X222140000Y-78000000D01*
X224000000Y-104880000D02*
X236500000Y-104880000D01*
X219500000Y-93500000D02*
X219500000Y-100380000D01*
%TO.N,Net-(A1-VUSB{slash}5V)*%
D23*
X219500000Y-87500000D02*
X219570000Y-87430000D01*
X218500000Y-87500000D02*
X219500000Y-87500000D01*
X219570000Y-87430000D02*
X222870000Y-87430000D01*
%TO.N,Net-(A1-D7)*%
D25*
X244000000Y-72000000D02*
X238300000Y-72000000D01*
D23*
X238300000Y-72000000D02*
X238110000Y-72190000D01*
%TO.N,Net-(A1-A3)*%
X215757693Y-95315000D02*
X215815000Y-95315000D01*
D25*
X209500000Y-89500000D02*
X206500000Y-92500000D01*
D23*
X222870000Y-74630000D02*
X223000000Y-74500000D01*
D25*
X222870000Y-74730000D02*
X222100000Y-75500000D01*
X209500000Y-75500000D02*
X209500000Y-89500000D01*
X215315000Y-95315000D02*
X212500000Y-92500000D01*
D23*
X215815000Y-95315000D02*
X216000000Y-95500000D01*
X215757693Y-95315000D02*
X215315000Y-95315000D01*
D25*
X212500000Y-92500000D02*
X206500000Y-92500000D01*
X222100000Y-75500000D02*
X209500000Y-75500000D01*
%TO.N,Net-(A1-A0)*%
X212500000Y-54000000D02*
X206500000Y-54000000D01*
X221110000Y-67110000D02*
X220000000Y-66000000D01*
X222870000Y-67110000D02*
X221110000Y-67110000D01*
X220000000Y-66000000D02*
X220000000Y-61057308D01*
D23*
X215757692Y-56815000D02*
X215315000Y-56815000D01*
D25*
X215315000Y-56815000D02*
X212500000Y-54000000D01*
X220000000Y-61057308D02*
X215757692Y-56815000D01*
%TO.N,Net-(A1-D11{slash}COPI)*%
D23*
X238110000Y-61390000D02*
X238110000Y-62030000D01*
D22*
X244000000Y-55500000D02*
X244000000Y-56500000D01*
X239110000Y-61390000D02*
X238110000Y-61390000D01*
X244000000Y-56500000D02*
X239110000Y-61390000D01*
%TO.N,Net-(A1-D2)*%
D25*
X238110000Y-84890000D02*
X240500000Y-87280000D01*
X240500000Y-90500000D02*
X242500000Y-92500000D01*
X240500000Y-87280000D02*
X240500000Y-90500000D01*
X245500000Y-92500000D02*
X249500000Y-88500000D01*
X249500000Y-88500000D02*
X249500000Y-85630000D01*
X255500000Y-88630000D02*
X255500000Y-87130000D01*
X242500000Y-92500000D02*
X245500000Y-92500000D01*
X255500000Y-87130000D02*
X253500000Y-85130000D01*
X253500000Y-85130000D02*
X250000000Y-85130000D01*
D23*
X250000000Y-85130000D02*
X249500000Y-85630000D01*
%TO.N,Net-(A1-D4)*%
D25*
X244000000Y-85071428D02*
X238738572Y-79810000D01*
D23*
X238738572Y-79810000D02*
X238110000Y-79810000D01*
%TO.N,Net-(A1-D8)*%
D25*
X241992857Y-69650000D02*
X238110000Y-69650000D01*
X244000000Y-67642857D02*
X241992857Y-69650000D01*
%TO.N,Net-(A1-D9)*%
X244000000Y-63285714D02*
X240175714Y-67110000D01*
X240175714Y-67110000D02*
X238110000Y-67110000D01*
%TO.N,Net-(A1-A2)*%
X226500000Y-97500000D02*
X226500000Y-73500000D01*
X226500000Y-73500000D02*
X225190000Y-72190000D01*
X225190000Y-72190000D02*
X222870000Y-72190000D01*
X224000000Y-99380000D02*
X224620000Y-99380000D01*
X226815000Y-102195000D02*
X224000000Y-99380000D01*
X233257692Y-102195000D02*
X226815000Y-102195000D01*
X224620000Y-99380000D02*
X226500000Y-97500000D01*
%TO.N,Net-(A1-SCL{slash}A5)*%
X222870000Y-79810000D02*
X215770000Y-79810000D01*
D23*
X215770000Y-79810000D02*
X215580000Y-80000000D01*
%TD*%
%TA.AperFunction,Conductor*%
%TO.N,Net-(D1-K)*%
G36*
X211891394Y-76920185D02*
G01*
X211937149Y-76972989D01*
X211947093Y-77042147D01*
X211924673Y-77097385D01*
X211802187Y-77265974D01*
X211702104Y-77462393D01*
X211702103Y-77462396D01*
X211633985Y-77672047D01*
X211599500Y-77889778D01*
X211599500Y-82385362D01*
X211599499Y-82385377D01*
X211599499Y-82610220D01*
X211633985Y-82827952D01*
X211702103Y-83037603D01*
X211702104Y-83037606D01*
X211802187Y-83234025D01*
X211931751Y-83412357D01*
X211931755Y-83412361D01*
X211931758Y-83412365D01*
X212059092Y-83539699D01*
X212091965Y-83572572D01*
X212091976Y-83572582D01*
X214063181Y-85543787D01*
X214096666Y-85605110D01*
X214099500Y-85631468D01*
X214099500Y-89385362D01*
X214099499Y-89385377D01*
X214099499Y-89389778D01*
X214099499Y-89610222D01*
X214113500Y-89698618D01*
X214132676Y-89819688D01*
X214133985Y-89827953D01*
X214202103Y-90037603D01*
X214202104Y-90037606D01*
X214302187Y-90234025D01*
X214431751Y-90412357D01*
X214431755Y-90412361D01*
X214431758Y-90412365D01*
X214531178Y-90511785D01*
X214591965Y-90572572D01*
X214591976Y-90572582D01*
X218063181Y-94043787D01*
X218096666Y-94105110D01*
X218099500Y-94131468D01*
X218099500Y-100265362D01*
X218099499Y-100265377D01*
X218099499Y-100490220D01*
X218129745Y-100681182D01*
X218133985Y-100707952D01*
X218202103Y-100917603D01*
X218202104Y-100917606D01*
X218264938Y-101040921D01*
X218289234Y-101088605D01*
X218302187Y-101114025D01*
X218431751Y-101292357D01*
X218431755Y-101292361D01*
X218431758Y-101292365D01*
X218516098Y-101376705D01*
X218591965Y-101452572D01*
X218591976Y-101452582D01*
X222901685Y-105762291D01*
X222935170Y-105823614D01*
X222930186Y-105893306D01*
X222901686Y-105937652D01*
X222857684Y-105981654D01*
X222765643Y-106130875D01*
X222765641Y-106130880D01*
X222710494Y-106297302D01*
X222710493Y-106297309D01*
X222700000Y-106400013D01*
X222700000Y-106750000D01*
X223684314Y-106750000D01*
X223679920Y-106754394D01*
X223627259Y-106845606D01*
X223600000Y-106947339D01*
X223600000Y-107052661D01*
X223627259Y-107154394D01*
X223679920Y-107245606D01*
X223684314Y-107250000D01*
X222700001Y-107250000D01*
X222700001Y-107325500D01*
X222680316Y-107392539D01*
X222627512Y-107438294D01*
X222576001Y-107449500D01*
X215907652Y-107449500D01*
X215840613Y-107429815D01*
X215794858Y-107377011D01*
X215783652Y-107325500D01*
X215783652Y-101732999D01*
X215803337Y-101665960D01*
X215856141Y-101620205D01*
X215888254Y-101610526D01*
X216062110Y-101582989D01*
X216256724Y-101519755D01*
X216439042Y-101426859D01*
X216483614Y-101394474D01*
X215804140Y-100715000D01*
X215810354Y-100715000D01*
X215912087Y-100687741D01*
X216003299Y-100635080D01*
X216077773Y-100560606D01*
X216130434Y-100469394D01*
X216157693Y-100367661D01*
X216157693Y-100361447D01*
X216837167Y-101040921D01*
X216869552Y-100996349D01*
X216962448Y-100814031D01*
X217025683Y-100619417D01*
X217057693Y-100417317D01*
X217057693Y-100212682D01*
X217025683Y-100010582D01*
X216962448Y-99815968D01*
X216869552Y-99633650D01*
X216837167Y-99589077D01*
X216837167Y-99589076D01*
X216157693Y-100268551D01*
X216157693Y-100262339D01*
X216130434Y-100160606D01*
X216077773Y-100069394D01*
X216003299Y-99994920D01*
X215912087Y-99942259D01*
X215810354Y-99915000D01*
X215804139Y-99915000D01*
X216483615Y-99235524D01*
X216483614Y-99235523D01*
X216439052Y-99203147D01*
X216439043Y-99203141D01*
X216256724Y-99110244D01*
X216062110Y-99047009D01*
X215860010Y-99015000D01*
X215655376Y-99015000D01*
X215453275Y-99047009D01*
X215258661Y-99110244D01*
X215076337Y-99203143D01*
X215031770Y-99235523D01*
X215031770Y-99235524D01*
X215711247Y-99915000D01*
X215705032Y-99915000D01*
X215603299Y-99942259D01*
X215512087Y-99994920D01*
X215437613Y-100069394D01*
X215384952Y-100160606D01*
X215357693Y-100262339D01*
X215357693Y-100268553D01*
X214678217Y-99589077D01*
X214678216Y-99589077D01*
X214645836Y-99633644D01*
X214552937Y-99815968D01*
X214489702Y-100010582D01*
X214457693Y-100212682D01*
X214457693Y-100417317D01*
X214489702Y-100619417D01*
X214552937Y-100814031D01*
X214645834Y-100996350D01*
X214645840Y-100996359D01*
X214678216Y-101040921D01*
X214678217Y-101040922D01*
X215357693Y-100361446D01*
X215357693Y-100367661D01*
X215384952Y-100469394D01*
X215437613Y-100560606D01*
X215512087Y-100635080D01*
X215603299Y-100687741D01*
X215705032Y-100715000D01*
X215711246Y-100715000D01*
X215031769Y-101394474D01*
X215076343Y-101426859D01*
X215107267Y-101442616D01*
X215158063Y-101490591D01*
X215174858Y-101558412D01*
X215152320Y-101624547D01*
X215097605Y-101667998D01*
X215050972Y-101677101D01*
X209068575Y-101677101D01*
X209068575Y-107325500D01*
X209048890Y-107392539D01*
X208996086Y-107438294D01*
X208944575Y-107449500D01*
X207161018Y-107449500D01*
X207093979Y-107429815D01*
X207048224Y-107377011D01*
X207038280Y-107307853D01*
X207060700Y-107252615D01*
X207089855Y-107212485D01*
X207112287Y-107181610D01*
X207205220Y-106999219D01*
X207268477Y-106804534D01*
X207300500Y-106602352D01*
X207300500Y-106397648D01*
X207284608Y-106297309D01*
X207268477Y-106195465D01*
X207225567Y-106063403D01*
X207205220Y-106000781D01*
X207205218Y-106000778D01*
X207205218Y-106000776D01*
X207156937Y-105906020D01*
X207112287Y-105818390D01*
X207088238Y-105785289D01*
X206991971Y-105652786D01*
X206847213Y-105508028D01*
X206681613Y-105387715D01*
X206681612Y-105387714D01*
X206681610Y-105387713D01*
X206624653Y-105358691D01*
X206499223Y-105294781D01*
X206304534Y-105231522D01*
X206129995Y-105203878D01*
X206102352Y-105199500D01*
X205897648Y-105199500D01*
X205834272Y-105209537D01*
X205693898Y-105231771D01*
X205624604Y-105222816D01*
X205571152Y-105177820D01*
X205550513Y-105111069D01*
X205550500Y-105109298D01*
X205550500Y-101499443D01*
X205570185Y-101432404D01*
X205622989Y-101386649D01*
X205692147Y-101376705D01*
X205713504Y-101381737D01*
X205797302Y-101409505D01*
X205797309Y-101409506D01*
X205900019Y-101419999D01*
X206249999Y-101419999D01*
X206250000Y-101419998D01*
X206250000Y-100435686D01*
X206254394Y-100440080D01*
X206345606Y-100492741D01*
X206447339Y-100520000D01*
X206552661Y-100520000D01*
X206654394Y-100492741D01*
X206745606Y-100440080D01*
X206750000Y-100435686D01*
X206750000Y-101419999D01*
X207099972Y-101419999D01*
X207099986Y-101419998D01*
X207202697Y-101409505D01*
X207369119Y-101354358D01*
X207369124Y-101354356D01*
X207518345Y-101262315D01*
X207642315Y-101138345D01*
X207734356Y-100989124D01*
X207734358Y-100989119D01*
X207789505Y-100822697D01*
X207789506Y-100822690D01*
X207799999Y-100719986D01*
X207800000Y-100719973D01*
X207800000Y-100370000D01*
X206815686Y-100370000D01*
X206820080Y-100365606D01*
X206872741Y-100274394D01*
X206900000Y-100172661D01*
X206900000Y-100067339D01*
X206872741Y-99965606D01*
X206820080Y-99874394D01*
X206815686Y-99870000D01*
X207799999Y-99870000D01*
X207799999Y-99520028D01*
X207799998Y-99520013D01*
X207789505Y-99417302D01*
X207757855Y-99321787D01*
X207734357Y-99250878D01*
X207734356Y-99250875D01*
X207642315Y-99101654D01*
X207518345Y-98977684D01*
X207369124Y-98885643D01*
X207369119Y-98885641D01*
X207202697Y-98830494D01*
X207202690Y-98830493D01*
X207099986Y-98820000D01*
X206750000Y-98820000D01*
X206750000Y-99804314D01*
X206745606Y-99799920D01*
X206654394Y-99747259D01*
X206552661Y-99720000D01*
X206447339Y-99720000D01*
X206345606Y-99747259D01*
X206254394Y-99799920D01*
X206250000Y-99804314D01*
X206250000Y-98820000D01*
X205900028Y-98820000D01*
X205900012Y-98820001D01*
X205797302Y-98830494D01*
X205713504Y-98858262D01*
X205643675Y-98860664D01*
X205583633Y-98824932D01*
X205552441Y-98762411D01*
X205550500Y-98740556D01*
X205550500Y-94241130D01*
X205570185Y-94174091D01*
X205622989Y-94128336D01*
X205692147Y-94118392D01*
X205721952Y-94126568D01*
X205920007Y-94208606D01*
X206147986Y-94269693D01*
X206381989Y-94300500D01*
X206381996Y-94300500D01*
X206618004Y-94300500D01*
X206618011Y-94300500D01*
X206852014Y-94269693D01*
X207079993Y-94208606D01*
X207298049Y-94118284D01*
X207502450Y-94000273D01*
X207599083Y-93926123D01*
X207664252Y-93900930D01*
X207674569Y-93900500D01*
X211868532Y-93900500D01*
X211935571Y-93920185D01*
X211956213Y-93936819D01*
X213925579Y-95906185D01*
X213959064Y-95967508D01*
X213961516Y-95984137D01*
X213967597Y-96061414D01*
X213967598Y-96061420D01*
X214022595Y-96279678D01*
X214022596Y-96279681D01*
X214115684Y-96484622D01*
X214115690Y-96484632D01*
X214243867Y-96669645D01*
X214243871Y-96669650D01*
X214243874Y-96669654D01*
X214403039Y-96828819D01*
X214403043Y-96828822D01*
X214403047Y-96828825D01*
X214534498Y-96919894D01*
X214588067Y-96957007D01*
X214793010Y-97050096D01*
X214793014Y-97050097D01*
X215011272Y-97105094D01*
X215011274Y-97105094D01*
X215011281Y-97105096D01*
X215143476Y-97115500D01*
X216371909Y-97115499D01*
X216504105Y-97105096D01*
X216722376Y-97050096D01*
X216927319Y-96957007D01*
X217112347Y-96828819D01*
X217271512Y-96669654D01*
X217399700Y-96484626D01*
X217492789Y-96279683D01*
X217547789Y-96061412D01*
X217558193Y-95929217D01*
X217558192Y-94700784D01*
X217547789Y-94568588D01*
X217535039Y-94517990D01*
X217492790Y-94350321D01*
X217492789Y-94350318D01*
X217484785Y-94332697D01*
X217399700Y-94145374D01*
X217349270Y-94072583D01*
X217271518Y-93960354D01*
X217271515Y-93960350D01*
X217271512Y-93960346D01*
X217112347Y-93801181D01*
X217112343Y-93801178D01*
X217112338Y-93801174D01*
X216927325Y-93672997D01*
X216927323Y-93672995D01*
X216927319Y-93672993D01*
X216886640Y-93654516D01*
X216722374Y-93579903D01*
X216722371Y-93579902D01*
X216504113Y-93524905D01*
X216504106Y-93524904D01*
X216371915Y-93514500D01*
X216371910Y-93514500D01*
X215546468Y-93514500D01*
X215479429Y-93494815D01*
X215458787Y-93478181D01*
X213572582Y-91591976D01*
X213572573Y-91591966D01*
X213508287Y-91527680D01*
X213412365Y-91431758D01*
X213412361Y-91431755D01*
X213412357Y-91431751D01*
X213234025Y-91302187D01*
X213234024Y-91302186D01*
X213234022Y-91302185D01*
X213171096Y-91270122D01*
X213037606Y-91202104D01*
X213037603Y-91202103D01*
X212827952Y-91133985D01*
X212719086Y-91116742D01*
X212610222Y-91099499D01*
X212389778Y-91099499D01*
X212384667Y-91099499D01*
X212384643Y-91099500D01*
X210180468Y-91099500D01*
X210113429Y-91079815D01*
X210067674Y-91027011D01*
X210057730Y-90957853D01*
X210086755Y-90894297D01*
X210092777Y-90887827D01*
X210405300Y-90575304D01*
X210405307Y-90575299D01*
X210412363Y-90568243D01*
X210412365Y-90568242D01*
X210568242Y-90412365D01*
X210697815Y-90234022D01*
X210797895Y-90037606D01*
X210866015Y-89827951D01*
X210867322Y-89819699D01*
X210867324Y-89819688D01*
X210886500Y-89698618D01*
X210900501Y-89610221D01*
X210900501Y-89389778D01*
X210900501Y-89385377D01*
X210900500Y-89385362D01*
X210900500Y-77024500D01*
X210920185Y-76957461D01*
X210972989Y-76911706D01*
X211024500Y-76900500D01*
X211824355Y-76900500D01*
X211891394Y-76920185D01*
G37*
%TD.AperFunction*%
%TA.AperFunction,Conductor*%
G36*
X232138901Y-106300185D02*
G01*
X232184656Y-106352989D01*
X232194600Y-106422147D01*
X232172180Y-106477385D01*
X232145834Y-106513647D01*
X232052936Y-106695968D01*
X231989701Y-106890582D01*
X231957692Y-107092682D01*
X231957692Y-107297314D01*
X231959084Y-107306105D01*
X231950127Y-107375398D01*
X231905130Y-107428849D01*
X231838378Y-107449487D01*
X231836610Y-107449500D01*
X225424000Y-107449500D01*
X225356961Y-107429815D01*
X225311206Y-107377011D01*
X225300000Y-107325500D01*
X225300000Y-107250000D01*
X224315686Y-107250000D01*
X224320080Y-107245606D01*
X224372741Y-107154394D01*
X224400000Y-107052661D01*
X224400000Y-106947339D01*
X224372741Y-106845606D01*
X224320080Y-106754394D01*
X224315686Y-106750000D01*
X225299999Y-106750000D01*
X225299999Y-106404500D01*
X225319684Y-106337461D01*
X225372488Y-106291706D01*
X225423999Y-106280500D01*
X232071862Y-106280500D01*
X232138901Y-106300185D01*
G37*
%TD.AperFunction*%
%TA.AperFunction,Conductor*%
G36*
X233892539Y-54070185D02*
G01*
X233938294Y-54122989D01*
X233949500Y-54174500D01*
X233949500Y-54572475D01*
X233982456Y-54695466D01*
X233987017Y-54712488D01*
X234059488Y-54838011D01*
X234059490Y-54838013D01*
X234059491Y-54838015D01*
X234161985Y-54940509D01*
X234161986Y-54940510D01*
X234161988Y-54940511D01*
X234287511Y-55012982D01*
X234287512Y-55012982D01*
X234287515Y-55012984D01*
X234427525Y-55050500D01*
X234427528Y-55050500D01*
X234572472Y-55050500D01*
X234572475Y-55050500D01*
X234712485Y-55012984D01*
X234838015Y-54940509D01*
X234940509Y-54838015D01*
X235012984Y-54712485D01*
X235050500Y-54572475D01*
X235050500Y-54174500D01*
X235070185Y-54107461D01*
X235122989Y-54061706D01*
X235174500Y-54050500D01*
X242339219Y-54050500D01*
X242406258Y-54070185D01*
X242452013Y-54122989D01*
X242461957Y-54192147D01*
X242437595Y-54249985D01*
X242428238Y-54262181D01*
X242333072Y-54386201D01*
X242201958Y-54613299D01*
X242201953Y-54613309D01*
X242101605Y-54855571D01*
X242101602Y-54855581D01*
X242041496Y-55079903D01*
X242033730Y-55108885D01*
X241999500Y-55368872D01*
X241999500Y-55631127D01*
X242021800Y-55800500D01*
X242033730Y-55891116D01*
X242101602Y-56144418D01*
X242101605Y-56144428D01*
X242191385Y-56361174D01*
X242198854Y-56430643D01*
X242167579Y-56493123D01*
X242164505Y-56496308D01*
X239929972Y-58730841D01*
X239868649Y-58764326D01*
X239798957Y-58759342D01*
X239743024Y-58717470D01*
X239730459Y-58695403D01*
X239730079Y-58695591D01*
X239728280Y-58691943D01*
X239678137Y-58605094D01*
X239610273Y-58487550D01*
X239466592Y-58300301D01*
X239466587Y-58300295D01*
X239299704Y-58133412D01*
X239299697Y-58133406D01*
X239112454Y-57989730D01*
X239112453Y-57989729D01*
X239112450Y-57989727D01*
X239012033Y-57931751D01*
X238908056Y-57871719D01*
X238908045Y-57871714D01*
X238689993Y-57781394D01*
X238462010Y-57720306D01*
X238228020Y-57689501D01*
X238228017Y-57689500D01*
X238228011Y-57689500D01*
X237991989Y-57689500D01*
X237991983Y-57689500D01*
X237991979Y-57689501D01*
X237757989Y-57720306D01*
X237530006Y-57781394D01*
X237311954Y-57871714D01*
X237311943Y-57871719D01*
X237107545Y-57989730D01*
X236920302Y-58133406D01*
X236920295Y-58133412D01*
X236753412Y-58300295D01*
X236753406Y-58300302D01*
X236609730Y-58487545D01*
X236491719Y-58691943D01*
X236491714Y-58691954D01*
X236401394Y-58910006D01*
X236340306Y-59137989D01*
X236309501Y-59371979D01*
X236309500Y-59371995D01*
X236309500Y-59608004D01*
X236309501Y-59608020D01*
X236340306Y-59842010D01*
X236401394Y-60069993D01*
X236491714Y-60288045D01*
X236491719Y-60288056D01*
X236554029Y-60395978D01*
X236609727Y-60492450D01*
X236609729Y-60492453D01*
X236609730Y-60492454D01*
X236755879Y-60682920D01*
X236754720Y-60683808D01*
X236781537Y-60741662D01*
X236771983Y-60810876D01*
X236755385Y-60836701D01*
X236755879Y-60837080D01*
X236609730Y-61027545D01*
X236491719Y-61231943D01*
X236491714Y-61231954D01*
X236401394Y-61450006D01*
X236340306Y-61677989D01*
X236309501Y-61911979D01*
X236309500Y-61911995D01*
X236309500Y-62148004D01*
X236309501Y-62148020D01*
X236340306Y-62382010D01*
X236401394Y-62609993D01*
X236491714Y-62828045D01*
X236491719Y-62828056D01*
X236538745Y-62909506D01*
X236609727Y-63032450D01*
X236609729Y-63032453D01*
X236609730Y-63032454D01*
X236755879Y-63222920D01*
X236754720Y-63223808D01*
X236781537Y-63281662D01*
X236771983Y-63350876D01*
X236755385Y-63376701D01*
X236755879Y-63377080D01*
X236609730Y-63567545D01*
X236491719Y-63771943D01*
X236491714Y-63771954D01*
X236401394Y-63990006D01*
X236340306Y-64217989D01*
X236309501Y-64451979D01*
X236309500Y-64451995D01*
X236309500Y-64688004D01*
X236309501Y-64688020D01*
X236324531Y-64802187D01*
X236340307Y-64922014D01*
X236374603Y-65050007D01*
X236401394Y-65149993D01*
X236491714Y-65368045D01*
X236491719Y-65368056D01*
X236562677Y-65490957D01*
X236609727Y-65572450D01*
X236609729Y-65572453D01*
X236609730Y-65572454D01*
X236755879Y-65762920D01*
X236754720Y-65763808D01*
X236781537Y-65821662D01*
X236771983Y-65890876D01*
X236755385Y-65916701D01*
X236755879Y-65917080D01*
X236609730Y-66107545D01*
X236609727Y-66107549D01*
X236609727Y-66107550D01*
X236608184Y-66110222D01*
X236491719Y-66311943D01*
X236491714Y-66311954D01*
X236401394Y-66530006D01*
X236340306Y-66757989D01*
X236309501Y-66991979D01*
X236309500Y-66991995D01*
X236309500Y-67228004D01*
X236309501Y-67228020D01*
X236340086Y-67460342D01*
X236340307Y-67462014D01*
X236382180Y-67618284D01*
X236401394Y-67689993D01*
X236491714Y-67908045D01*
X236491719Y-67908056D01*
X236548152Y-68005799D01*
X236609727Y-68112450D01*
X236609729Y-68112453D01*
X236609730Y-68112454D01*
X236755879Y-68302920D01*
X236754720Y-68303808D01*
X236781537Y-68361662D01*
X236771983Y-68430876D01*
X236755385Y-68456701D01*
X236755879Y-68457080D01*
X236609730Y-68647545D01*
X236491719Y-68851943D01*
X236491714Y-68851954D01*
X236401394Y-69070006D01*
X236340306Y-69297989D01*
X236309501Y-69531979D01*
X236309500Y-69531995D01*
X236309500Y-69768004D01*
X236309501Y-69768020D01*
X236338018Y-69984632D01*
X236340307Y-70002014D01*
X236377579Y-70141116D01*
X236401394Y-70229993D01*
X236491714Y-70448045D01*
X236491719Y-70448056D01*
X236517510Y-70492726D01*
X236609727Y-70652450D01*
X236609729Y-70652453D01*
X236609730Y-70652454D01*
X236755879Y-70842920D01*
X236754720Y-70843808D01*
X236781537Y-70901662D01*
X236771983Y-70970876D01*
X236755385Y-70996701D01*
X236755879Y-70997080D01*
X236609730Y-71187545D01*
X236491719Y-71391943D01*
X236491714Y-71391954D01*
X236401394Y-71610006D01*
X236340306Y-71837989D01*
X236309501Y-72071979D01*
X236309500Y-72071995D01*
X236309500Y-72308004D01*
X236309501Y-72308020D01*
X236340306Y-72542010D01*
X236401394Y-72769993D01*
X236491714Y-72988045D01*
X236491719Y-72988056D01*
X236553814Y-73095606D01*
X236609727Y-73192450D01*
X236609729Y-73192453D01*
X236609730Y-73192454D01*
X236755879Y-73382920D01*
X236754720Y-73383808D01*
X236781537Y-73441662D01*
X236771983Y-73510876D01*
X236755385Y-73536701D01*
X236755879Y-73537080D01*
X236609730Y-73727545D01*
X236491719Y-73931943D01*
X236491714Y-73931954D01*
X236401394Y-74150006D01*
X236340306Y-74377989D01*
X236309501Y-74611979D01*
X236309500Y-74611995D01*
X236309500Y-74848004D01*
X236309501Y-74848020D01*
X236340306Y-75082010D01*
X236401394Y-75309993D01*
X236491714Y-75528045D01*
X236491719Y-75528056D01*
X236562677Y-75650957D01*
X236609727Y-75732450D01*
X236609729Y-75732453D01*
X236609730Y-75732454D01*
X236755879Y-75922920D01*
X236754720Y-75923808D01*
X236781537Y-75981662D01*
X236771983Y-76050876D01*
X236755385Y-76076701D01*
X236755879Y-76077080D01*
X236609730Y-76267545D01*
X236491719Y-76471943D01*
X236491714Y-76471954D01*
X236401394Y-76690006D01*
X236340306Y-76917989D01*
X236309501Y-77151979D01*
X236309500Y-77151995D01*
X236309500Y-77388004D01*
X236309501Y-77388020D01*
X236340306Y-77622010D01*
X236401394Y-77849993D01*
X236491714Y-78068045D01*
X236491719Y-78068056D01*
X236560433Y-78187071D01*
X236609727Y-78272450D01*
X236609729Y-78272453D01*
X236609730Y-78272454D01*
X236755879Y-78462920D01*
X236754720Y-78463808D01*
X236781537Y-78521662D01*
X236771983Y-78590876D01*
X236755385Y-78616701D01*
X236755879Y-78617080D01*
X236609730Y-78807545D01*
X236491719Y-79011943D01*
X236491714Y-79011954D01*
X236401394Y-79230006D01*
X236340306Y-79457989D01*
X236309501Y-79691979D01*
X236309500Y-79691995D01*
X236309500Y-79928004D01*
X236309501Y-79928020D01*
X236340306Y-80162010D01*
X236401394Y-80389993D01*
X236491714Y-80608045D01*
X236491719Y-80608056D01*
X236556002Y-80719395D01*
X236609727Y-80812450D01*
X236609729Y-80812453D01*
X236609730Y-80812454D01*
X236755879Y-81002920D01*
X236754720Y-81003808D01*
X236781537Y-81061662D01*
X236771983Y-81130876D01*
X236755385Y-81156701D01*
X236755879Y-81157080D01*
X236609730Y-81347545D01*
X236491719Y-81551943D01*
X236491714Y-81551954D01*
X236401394Y-81770006D01*
X236340306Y-81997989D01*
X236309501Y-82231979D01*
X236309500Y-82231995D01*
X236309500Y-82468004D01*
X236309501Y-82468020D01*
X236340306Y-82702010D01*
X236401394Y-82929993D01*
X236491714Y-83148045D01*
X236491719Y-83148056D01*
X236541354Y-83234025D01*
X236609727Y-83352450D01*
X236609729Y-83352453D01*
X236609730Y-83352454D01*
X236755879Y-83542920D01*
X236754720Y-83543808D01*
X236781537Y-83601662D01*
X236771983Y-83670876D01*
X236755385Y-83696701D01*
X236755879Y-83697080D01*
X236609730Y-83887545D01*
X236491719Y-84091943D01*
X236491714Y-84091954D01*
X236401394Y-84310006D01*
X236340306Y-84537989D01*
X236309501Y-84771979D01*
X236309500Y-84771995D01*
X236309500Y-85008004D01*
X236309501Y-85008020D01*
X236340306Y-85242010D01*
X236401394Y-85469993D01*
X236491714Y-85688045D01*
X236491719Y-85688056D01*
X236507770Y-85715856D01*
X236609727Y-85892450D01*
X236609729Y-85892453D01*
X236609730Y-85892454D01*
X236753406Y-86079697D01*
X236753412Y-86079704D01*
X236920295Y-86246587D01*
X236920302Y-86246593D01*
X237110631Y-86392638D01*
X237151834Y-86449066D01*
X237155989Y-86518812D01*
X237122832Y-86578690D01*
X237118415Y-86583106D01*
X236998140Y-86748650D01*
X236905244Y-86930970D01*
X236842009Y-87125586D01*
X236833391Y-87180000D01*
X237676988Y-87180000D01*
X237644075Y-87237007D01*
X237610000Y-87364174D01*
X237610000Y-87495826D01*
X237644075Y-87622993D01*
X237676988Y-87680000D01*
X236833391Y-87680000D01*
X236842009Y-87734413D01*
X236905244Y-87929029D01*
X236998140Y-88111349D01*
X237118417Y-88276894D01*
X237118417Y-88276895D01*
X237122826Y-88281304D01*
X237156311Y-88342627D01*
X237151327Y-88412319D01*
X237110632Y-88467361D01*
X236920295Y-88613412D01*
X236753412Y-88780295D01*
X236753409Y-88780299D01*
X236609730Y-88967545D01*
X236491719Y-89171943D01*
X236491714Y-89171954D01*
X236401394Y-89390006D01*
X236340306Y-89617989D01*
X236309501Y-89851979D01*
X236309500Y-89851995D01*
X236309500Y-90088004D01*
X236309501Y-90088020D01*
X236340306Y-90322010D01*
X236401394Y-90549993D01*
X236491714Y-90768045D01*
X236491719Y-90768056D01*
X236538813Y-90849624D01*
X236609727Y-90972450D01*
X236609729Y-90972453D01*
X236609730Y-90972454D01*
X236755879Y-91162920D01*
X236754720Y-91163808D01*
X236781537Y-91221662D01*
X236771983Y-91290876D01*
X236755385Y-91316701D01*
X236755879Y-91317080D01*
X236609730Y-91507545D01*
X236491719Y-91711943D01*
X236491714Y-91711954D01*
X236401394Y-91930006D01*
X236340306Y-92157989D01*
X236309501Y-92391979D01*
X236309500Y-92391995D01*
X236309500Y-92628004D01*
X236309501Y-92628020D01*
X236334381Y-92817007D01*
X236340307Y-92862014D01*
X236378458Y-93004394D01*
X236401394Y-93089993D01*
X236491714Y-93308045D01*
X236491719Y-93308056D01*
X236571406Y-93446077D01*
X236587879Y-93513977D01*
X236565026Y-93580004D01*
X236560121Y-93586437D01*
X236470305Y-93696587D01*
X236376089Y-93876954D01*
X236320114Y-94072583D01*
X236320113Y-94072586D01*
X236309500Y-94191966D01*
X236309500Y-95908028D01*
X236309501Y-95908034D01*
X236320113Y-96027415D01*
X236376089Y-96223045D01*
X236376090Y-96223048D01*
X236376091Y-96223049D01*
X236470302Y-96403407D01*
X236470304Y-96403409D01*
X236598890Y-96561109D01*
X236692803Y-96637684D01*
X236756593Y-96689698D01*
X236936951Y-96783909D01*
X237132582Y-96839886D01*
X237251963Y-96850500D01*
X238968036Y-96850499D01*
X239087418Y-96839886D01*
X239283049Y-96783909D01*
X239463407Y-96689698D01*
X239621109Y-96561109D01*
X239749698Y-96403407D01*
X239843909Y-96223049D01*
X239899886Y-96027418D01*
X239910500Y-95908037D01*
X239910499Y-94191964D01*
X239899886Y-94072582D01*
X239850770Y-93900930D01*
X239843910Y-93876954D01*
X239843909Y-93876953D01*
X239843909Y-93876951D01*
X239749698Y-93696593D01*
X239659877Y-93586436D01*
X239632769Y-93522042D01*
X239644778Y-93453212D01*
X239648579Y-93446100D01*
X239728284Y-93308049D01*
X239818606Y-93089993D01*
X239879693Y-92862014D01*
X239910500Y-92628011D01*
X239910500Y-92391989D01*
X239882239Y-92177328D01*
X239893004Y-92108296D01*
X239939384Y-92056040D01*
X240006653Y-92037155D01*
X240073454Y-92057635D01*
X240092859Y-92073465D01*
X241428632Y-93409238D01*
X241428646Y-93409253D01*
X241431757Y-93412364D01*
X241431758Y-93412365D01*
X241587635Y-93568242D01*
X241706383Y-93654517D01*
X241765978Y-93697815D01*
X241862313Y-93746900D01*
X241962393Y-93797895D01*
X241962396Y-93797896D01*
X242039780Y-93823039D01*
X242172049Y-93866015D01*
X242389778Y-93900501D01*
X242389779Y-93900501D01*
X242615333Y-93900501D01*
X242615357Y-93900500D01*
X245384643Y-93900500D01*
X245384667Y-93900501D01*
X245389778Y-93900501D01*
X245610221Y-93900501D01*
X245610222Y-93900501D01*
X245827951Y-93866015D01*
X246037606Y-93797895D01*
X246234022Y-93697815D01*
X246293617Y-93654517D01*
X246412365Y-93568242D01*
X246568242Y-93412365D01*
X246568243Y-93412363D01*
X246575303Y-93405303D01*
X246575309Y-93405296D01*
X246832923Y-93147682D01*
X248200000Y-93147682D01*
X248200000Y-93352317D01*
X248232009Y-93554417D01*
X248295244Y-93749031D01*
X248388141Y-93931350D01*
X248388147Y-93931359D01*
X248420523Y-93975921D01*
X248420524Y-93975922D01*
X249100000Y-93296446D01*
X249100000Y-93302661D01*
X249127259Y-93404394D01*
X249179920Y-93495606D01*
X249254394Y-93570080D01*
X249345606Y-93622741D01*
X249447339Y-93650000D01*
X249453553Y-93650000D01*
X248774076Y-94329474D01*
X248818650Y-94361859D01*
X249000968Y-94454755D01*
X249195582Y-94517990D01*
X249397683Y-94550000D01*
X249602317Y-94550000D01*
X249804417Y-94517990D01*
X249999031Y-94454755D01*
X250181349Y-94361859D01*
X250225921Y-94329474D01*
X249546447Y-93650000D01*
X249552661Y-93650000D01*
X249654394Y-93622741D01*
X249745606Y-93570080D01*
X249820080Y-93495606D01*
X249872741Y-93404394D01*
X249900000Y-93302661D01*
X249900000Y-93296447D01*
X250579474Y-93975921D01*
X250611859Y-93931349D01*
X250704755Y-93749031D01*
X250767990Y-93554417D01*
X250800000Y-93352317D01*
X250800000Y-93147682D01*
X250767990Y-92945582D01*
X250704755Y-92750968D01*
X250611859Y-92568650D01*
X250579474Y-92524077D01*
X250579474Y-92524076D01*
X249900000Y-93203551D01*
X249900000Y-93197339D01*
X249872741Y-93095606D01*
X249820080Y-93004394D01*
X249745606Y-92929920D01*
X249654394Y-92877259D01*
X249552661Y-92850000D01*
X249546446Y-92850000D01*
X250225922Y-92170524D01*
X250225921Y-92170523D01*
X250181359Y-92138147D01*
X250181350Y-92138141D01*
X249999031Y-92045244D01*
X249804417Y-91982009D01*
X249602317Y-91950000D01*
X249397683Y-91950000D01*
X249195582Y-91982009D01*
X249000968Y-92045244D01*
X248818644Y-92138143D01*
X248774077Y-92170523D01*
X248774077Y-92170524D01*
X249453554Y-92850000D01*
X249447339Y-92850000D01*
X249345606Y-92877259D01*
X249254394Y-92929920D01*
X249179920Y-93004394D01*
X249127259Y-93095606D01*
X249100000Y-93197339D01*
X249100000Y-93203553D01*
X248420524Y-92524077D01*
X248420523Y-92524077D01*
X248388143Y-92568644D01*
X248295244Y-92750968D01*
X248232009Y-92945582D01*
X248200000Y-93147682D01*
X246832923Y-93147682D01*
X250405296Y-89575309D01*
X250405303Y-89575303D01*
X250412363Y-89568243D01*
X250412365Y-89568242D01*
X250568242Y-89412365D01*
X250697815Y-89234022D01*
X250797895Y-89037606D01*
X250866015Y-88827951D01*
X250900500Y-88610222D01*
X250900500Y-87149335D01*
X250920185Y-87082296D01*
X250936819Y-87061654D01*
X250968572Y-87029901D01*
X251013819Y-86984654D01*
X251142007Y-86799626D01*
X251226636Y-86613309D01*
X251231219Y-86603219D01*
X251276866Y-86550322D01*
X251343865Y-86530500D01*
X252868532Y-86530500D01*
X252935571Y-86550185D01*
X252956213Y-86566819D01*
X253938748Y-87549354D01*
X253972233Y-87610677D01*
X253967249Y-87680369D01*
X253958454Y-87699035D01*
X253881719Y-87831943D01*
X253881714Y-87831954D01*
X253791394Y-88050006D01*
X253730306Y-88277989D01*
X253699501Y-88511979D01*
X253699500Y-88511995D01*
X253699500Y-88748004D01*
X253699501Y-88748020D01*
X253728402Y-88967550D01*
X253730307Y-88982014D01*
X253781201Y-89171951D01*
X253791394Y-89209993D01*
X253881714Y-89428045D01*
X253881719Y-89428056D01*
X253952677Y-89550957D01*
X253999727Y-89632450D01*
X253999729Y-89632453D01*
X253999730Y-89632454D01*
X254143406Y-89819697D01*
X254143412Y-89819704D01*
X254310295Y-89986587D01*
X254310300Y-89986591D01*
X254310301Y-89986592D01*
X254497550Y-90130273D01*
X254628918Y-90206118D01*
X254701943Y-90248280D01*
X254701948Y-90248282D01*
X254701951Y-90248284D01*
X254920007Y-90338606D01*
X255147986Y-90399693D01*
X255299914Y-90419694D01*
X255341685Y-90425194D01*
X255405582Y-90453460D01*
X255444053Y-90511785D01*
X255449500Y-90548133D01*
X255449500Y-92206000D01*
X255429815Y-92273039D01*
X255377011Y-92318794D01*
X255325500Y-92330000D01*
X254900028Y-92330000D01*
X254900012Y-92330001D01*
X254797302Y-92340494D01*
X254630880Y-92395641D01*
X254630875Y-92395643D01*
X254481654Y-92487684D01*
X254357684Y-92611654D01*
X254265643Y-92760875D01*
X254265641Y-92760880D01*
X254210494Y-92927302D01*
X254210493Y-92927309D01*
X254200000Y-93030013D01*
X254200000Y-93380000D01*
X255184314Y-93380000D01*
X255179920Y-93384394D01*
X255127259Y-93475606D01*
X255100000Y-93577339D01*
X255100000Y-93682661D01*
X255127259Y-93784394D01*
X255179920Y-93875606D01*
X255184314Y-93880000D01*
X254200001Y-93880000D01*
X254200001Y-94229986D01*
X254210494Y-94332697D01*
X254265641Y-94499119D01*
X254265643Y-94499124D01*
X254357684Y-94648345D01*
X254481654Y-94772315D01*
X254630875Y-94864356D01*
X254630880Y-94864358D01*
X254797302Y-94919505D01*
X254797309Y-94919506D01*
X254900019Y-94929999D01*
X255325500Y-94929999D01*
X255392539Y-94949683D01*
X255438294Y-95002487D01*
X255449500Y-95053999D01*
X255449500Y-105744921D01*
X255429815Y-105811960D01*
X255381796Y-105855405D01*
X255318388Y-105887713D01*
X255152786Y-106008028D01*
X255008028Y-106152786D01*
X254887715Y-106318386D01*
X254794781Y-106500776D01*
X254731522Y-106695465D01*
X254699500Y-106897648D01*
X254699500Y-107102351D01*
X254731771Y-107306102D01*
X254722816Y-107375396D01*
X254677820Y-107428848D01*
X254611069Y-107449487D01*
X254609298Y-107449500D01*
X253219159Y-107449500D01*
X253152120Y-107429815D01*
X253106365Y-107377011D01*
X253096421Y-107307853D01*
X253096685Y-107306105D01*
X253098077Y-107297314D01*
X253098077Y-107092682D01*
X253066067Y-106890582D01*
X253002832Y-106695968D01*
X252909936Y-106513650D01*
X252877551Y-106469077D01*
X252877551Y-106469076D01*
X252198077Y-107148551D01*
X252198077Y-107142339D01*
X252170818Y-107040606D01*
X252118157Y-106949394D01*
X252043683Y-106874920D01*
X251952471Y-106822259D01*
X251850738Y-106795000D01*
X251844523Y-106795000D01*
X252523999Y-106115524D01*
X252523998Y-106115523D01*
X252479436Y-106083147D01*
X252479427Y-106083141D01*
X252297108Y-105990244D01*
X252102494Y-105927009D01*
X251900394Y-105895000D01*
X251695760Y-105895000D01*
X251493659Y-105927009D01*
X251299045Y-105990244D01*
X251116721Y-106083143D01*
X251072154Y-106115523D01*
X251072154Y-106115524D01*
X251751631Y-106795000D01*
X251745416Y-106795000D01*
X251643683Y-106822259D01*
X251552471Y-106874920D01*
X251477997Y-106949394D01*
X251425336Y-107040606D01*
X251398077Y-107142339D01*
X251398077Y-107148553D01*
X250718601Y-106469077D01*
X250718600Y-106469077D01*
X250686220Y-106513644D01*
X250593321Y-106695968D01*
X250530086Y-106890582D01*
X250498077Y-107092682D01*
X250498077Y-107297314D01*
X250499469Y-107306105D01*
X250490512Y-107375398D01*
X250445515Y-107428849D01*
X250378763Y-107449487D01*
X250376995Y-107449500D01*
X243964385Y-107449500D01*
X243897346Y-107429815D01*
X243851591Y-107377011D01*
X243840385Y-107325500D01*
X243840385Y-107250000D01*
X242856071Y-107250000D01*
X242860465Y-107245606D01*
X242913126Y-107154394D01*
X242940385Y-107052661D01*
X242940385Y-106947339D01*
X242913126Y-106845606D01*
X242860465Y-106754394D01*
X242856071Y-106750000D01*
X243840384Y-106750000D01*
X243840384Y-106400028D01*
X243840383Y-106400013D01*
X243829890Y-106297302D01*
X243798240Y-106201787D01*
X243774742Y-106130878D01*
X243774741Y-106130875D01*
X243682700Y-105981654D01*
X243558730Y-105857684D01*
X243409509Y-105765643D01*
X243409504Y-105765641D01*
X243243082Y-105710494D01*
X243243075Y-105710493D01*
X243140371Y-105700000D01*
X242790385Y-105700000D01*
X242790385Y-106684314D01*
X242785991Y-106679920D01*
X242694779Y-106627259D01*
X242593046Y-106600000D01*
X242487724Y-106600000D01*
X242385991Y-106627259D01*
X242294779Y-106679920D01*
X242290385Y-106684314D01*
X242290385Y-105700000D01*
X241940413Y-105700000D01*
X241940397Y-105700001D01*
X241837687Y-105710494D01*
X241671265Y-105765641D01*
X241671260Y-105765643D01*
X241522039Y-105857684D01*
X241398069Y-105981654D01*
X241306028Y-106130875D01*
X241306026Y-106130880D01*
X241250879Y-106297302D01*
X241250878Y-106297309D01*
X241240385Y-106400013D01*
X241240385Y-106750000D01*
X242224699Y-106750000D01*
X242220305Y-106754394D01*
X242167644Y-106845606D01*
X242140385Y-106947339D01*
X242140385Y-107052661D01*
X242167644Y-107154394D01*
X242220305Y-107245606D01*
X242224699Y-107250000D01*
X241240386Y-107250000D01*
X241240386Y-107325500D01*
X241220701Y-107392539D01*
X241167897Y-107438294D01*
X241116386Y-107449500D01*
X234678774Y-107449500D01*
X234611735Y-107429815D01*
X234565980Y-107377011D01*
X234556036Y-107307853D01*
X234556300Y-107306105D01*
X234557692Y-107297314D01*
X234557692Y-107092682D01*
X234525682Y-106890582D01*
X234462447Y-106695968D01*
X234369549Y-106513647D01*
X234343204Y-106477385D01*
X234319724Y-106411579D01*
X234335550Y-106343525D01*
X234385655Y-106294830D01*
X234443522Y-106280500D01*
X236384643Y-106280500D01*
X236384667Y-106280501D01*
X236389778Y-106280501D01*
X236610221Y-106280501D01*
X236610222Y-106280501D01*
X236827951Y-106246015D01*
X237037606Y-106177895D01*
X237234022Y-106077815D01*
X237412365Y-105948242D01*
X237568242Y-105792365D01*
X237568243Y-105792363D01*
X237575303Y-105785303D01*
X237575309Y-105785296D01*
X242165052Y-101195552D01*
X242226373Y-101162069D01*
X242268913Y-101160296D01*
X242309132Y-101165590D01*
X242373027Y-101193856D01*
X242380627Y-101200848D01*
X244284017Y-103104238D01*
X244284031Y-103104253D01*
X244287142Y-103107364D01*
X244287143Y-103107365D01*
X244443020Y-103263242D01*
X244582564Y-103364626D01*
X244582565Y-103364627D01*
X244621358Y-103392812D01*
X244621360Y-103392813D01*
X244621363Y-103392815D01*
X244713729Y-103439878D01*
X244817778Y-103492895D01*
X244817781Y-103492896D01*
X244922606Y-103526955D01*
X245027434Y-103561015D01*
X245245163Y-103595501D01*
X245245164Y-103595501D01*
X245470718Y-103595501D01*
X245470742Y-103595500D01*
X250278742Y-103595500D01*
X250345781Y-103615185D01*
X250366423Y-103631819D01*
X250443423Y-103708819D01*
X250443427Y-103708822D01*
X250443431Y-103708825D01*
X250582680Y-103805297D01*
X250628451Y-103837007D01*
X250833394Y-103930096D01*
X250833398Y-103930097D01*
X251051656Y-103985094D01*
X251051658Y-103985094D01*
X251051665Y-103985096D01*
X251183860Y-103995500D01*
X252412293Y-103995499D01*
X252544489Y-103985096D01*
X252762760Y-103930096D01*
X252967703Y-103837007D01*
X253152731Y-103708819D01*
X253311896Y-103549654D01*
X253440084Y-103364626D01*
X253533173Y-103159683D01*
X253588173Y-102941412D01*
X253598577Y-102809217D01*
X253598576Y-101580784D01*
X253588173Y-101448588D01*
X253588086Y-101448244D01*
X253533174Y-101230321D01*
X253533173Y-101230318D01*
X253519787Y-101200848D01*
X253440084Y-101025374D01*
X253311896Y-100840346D01*
X253152731Y-100681181D01*
X253152727Y-100681178D01*
X253152722Y-100681174D01*
X252967709Y-100552997D01*
X252967707Y-100552995D01*
X252967703Y-100552993D01*
X252895066Y-100520000D01*
X252762758Y-100459903D01*
X252762755Y-100459902D01*
X252544497Y-100404905D01*
X252544490Y-100404904D01*
X252500424Y-100401436D01*
X252412294Y-100394500D01*
X252412292Y-100394500D01*
X251183868Y-100394500D01*
X251183853Y-100394501D01*
X251051663Y-100404904D01*
X251051656Y-100404905D01*
X250833398Y-100459902D01*
X250833395Y-100459903D01*
X250628454Y-100552991D01*
X250628444Y-100552997D01*
X250443431Y-100681174D01*
X250443419Y-100681184D01*
X250366423Y-100758181D01*
X250305100Y-100791666D01*
X250278742Y-100794500D01*
X245986853Y-100794500D01*
X245919814Y-100774815D01*
X245899172Y-100758181D01*
X244361234Y-99220243D01*
X244327749Y-99158920D01*
X244325976Y-99148747D01*
X244310078Y-99027989D01*
X244310078Y-99027986D01*
X244248991Y-98800007D01*
X244158669Y-98581951D01*
X244158667Y-98581948D01*
X244158665Y-98581943D01*
X244060758Y-98412365D01*
X244040658Y-98377550D01*
X243896977Y-98190301D01*
X243896972Y-98190295D01*
X243730089Y-98023412D01*
X243730082Y-98023406D01*
X243542839Y-97879730D01*
X243542838Y-97879729D01*
X243542835Y-97879727D01*
X243453158Y-97827952D01*
X243338441Y-97761719D01*
X243338430Y-97761714D01*
X243120378Y-97671394D01*
X242892395Y-97610306D01*
X242658405Y-97579501D01*
X242658402Y-97579500D01*
X242658396Y-97579500D01*
X242422374Y-97579500D01*
X242422368Y-97579500D01*
X242422364Y-97579501D01*
X242188374Y-97610306D01*
X241960391Y-97671394D01*
X241742339Y-97761714D01*
X241742328Y-97761719D01*
X241537930Y-97879730D01*
X241350687Y-98023406D01*
X241350680Y-98023412D01*
X241183801Y-98190292D01*
X241183799Y-98190293D01*
X241104154Y-98294087D01*
X241090861Y-98308097D01*
X241091079Y-98308315D01*
X235956213Y-103443181D01*
X235894890Y-103476666D01*
X235868532Y-103479500D01*
X235040036Y-103479500D01*
X234972997Y-103459815D01*
X234927242Y-103407011D01*
X234917298Y-103337853D01*
X234927137Y-103304219D01*
X234944185Y-103266686D01*
X234992788Y-103159683D01*
X235047788Y-102941412D01*
X235058192Y-102809217D01*
X235058191Y-101580784D01*
X235047788Y-101448588D01*
X235047701Y-101448244D01*
X234992789Y-101230321D01*
X234992788Y-101230318D01*
X234979402Y-101200848D01*
X234899699Y-101025374D01*
X234771511Y-100840346D01*
X234612346Y-100681181D01*
X234612342Y-100681178D01*
X234612337Y-100681174D01*
X234427324Y-100552997D01*
X234427322Y-100552995D01*
X234427318Y-100552993D01*
X234354681Y-100520000D01*
X234222373Y-100459903D01*
X234222370Y-100459902D01*
X234004112Y-100404905D01*
X234004105Y-100404904D01*
X233960039Y-100401436D01*
X233871909Y-100394500D01*
X233871907Y-100394500D01*
X232643483Y-100394500D01*
X232643468Y-100394501D01*
X232511278Y-100404904D01*
X232511271Y-100404905D01*
X232293013Y-100459902D01*
X232293010Y-100459903D01*
X232088069Y-100552991D01*
X232088059Y-100552997D01*
X231903046Y-100681174D01*
X231903034Y-100681184D01*
X231826038Y-100758181D01*
X231764715Y-100791666D01*
X231738357Y-100794500D01*
X227446468Y-100794500D01*
X227379429Y-100774815D01*
X227358787Y-100758181D01*
X226378286Y-99777680D01*
X226344801Y-99716357D01*
X226349785Y-99646665D01*
X226378282Y-99602323D01*
X227405296Y-98575308D01*
X227405303Y-98575303D01*
X227412363Y-98568243D01*
X227412365Y-98568242D01*
X227568242Y-98412365D01*
X227697815Y-98234022D01*
X227797895Y-98037606D01*
X227805570Y-98013985D01*
X227866015Y-97827952D01*
X227883781Y-97715778D01*
X227900500Y-97610227D01*
X227900500Y-73615357D01*
X227900501Y-73615332D01*
X227900501Y-73389779D01*
X227899415Y-73382920D01*
X227866015Y-73172049D01*
X227843373Y-73102364D01*
X227843373Y-73102363D01*
X227797897Y-72962399D01*
X227797895Y-72962393D01*
X227754516Y-72877259D01*
X227697815Y-72765978D01*
X227613573Y-72650028D01*
X227568248Y-72587642D01*
X227568244Y-72587638D01*
X227568242Y-72587635D01*
X227412365Y-72431758D01*
X227412364Y-72431757D01*
X227409253Y-72428646D01*
X227409238Y-72428632D01*
X226262582Y-71281976D01*
X226262573Y-71281966D01*
X226258242Y-71277635D01*
X226102365Y-71121758D01*
X226102361Y-71121755D01*
X226102357Y-71121751D01*
X225924025Y-70992187D01*
X225924024Y-70992186D01*
X225924022Y-70992185D01*
X225861096Y-70960122D01*
X225727606Y-70892104D01*
X225727603Y-70892103D01*
X225517952Y-70823985D01*
X225409086Y-70806742D01*
X225300222Y-70789499D01*
X225079778Y-70789499D01*
X225074667Y-70789499D01*
X225074643Y-70789500D01*
X224505921Y-70789500D01*
X224438882Y-70769815D01*
X224393127Y-70717011D01*
X224383183Y-70647853D01*
X224398534Y-70603500D01*
X224429367Y-70550097D01*
X224488284Y-70448049D01*
X224578606Y-70229993D01*
X224639693Y-70002014D01*
X224670500Y-69768011D01*
X224670500Y-69531989D01*
X224639693Y-69297986D01*
X224578606Y-69070007D01*
X224488284Y-68851951D01*
X224488282Y-68851948D01*
X224488280Y-68851943D01*
X224433268Y-68756660D01*
X224370273Y-68647550D01*
X224279732Y-68529554D01*
X224224121Y-68457080D01*
X224225286Y-68456185D01*
X224198469Y-68398381D01*
X224207998Y-68329165D01*
X224224619Y-68303302D01*
X224224121Y-68302920D01*
X224319789Y-68178242D01*
X224370273Y-68112450D01*
X224488284Y-67908049D01*
X224578606Y-67689993D01*
X224639693Y-67462014D01*
X224670500Y-67228011D01*
X224670500Y-66991989D01*
X224639693Y-66757986D01*
X224578606Y-66530007D01*
X224488284Y-66311951D01*
X224488282Y-66311948D01*
X224488280Y-66311943D01*
X224429419Y-66209994D01*
X224370273Y-66107550D01*
X224228103Y-65922270D01*
X224224121Y-65917080D01*
X224225286Y-65916185D01*
X224198469Y-65858381D01*
X224207998Y-65789165D01*
X224224619Y-65763302D01*
X224224121Y-65762920D01*
X224290366Y-65676587D01*
X224370273Y-65572450D01*
X224488284Y-65368049D01*
X224578606Y-65149993D01*
X224639693Y-64922014D01*
X224670500Y-64688011D01*
X224670500Y-64451989D01*
X224639693Y-64217986D01*
X224578606Y-63990007D01*
X224488284Y-63771951D01*
X224488282Y-63771948D01*
X224488280Y-63771943D01*
X224433365Y-63676828D01*
X224370273Y-63567550D01*
X224254625Y-63416834D01*
X224224121Y-63377080D01*
X224225286Y-63376185D01*
X224198469Y-63318381D01*
X224207998Y-63249165D01*
X224224619Y-63223302D01*
X224224121Y-63222920D01*
X224339500Y-63072554D01*
X224370273Y-63032450D01*
X224488284Y-62828049D01*
X224578606Y-62609993D01*
X224639693Y-62382014D01*
X224670500Y-62148011D01*
X224670500Y-61911989D01*
X224639693Y-61677986D01*
X224578606Y-61450007D01*
X224488284Y-61231951D01*
X224488282Y-61231948D01*
X224488280Y-61231943D01*
X224431526Y-61133644D01*
X224370273Y-61027550D01*
X224285677Y-60917302D01*
X224224121Y-60837080D01*
X224225286Y-60836185D01*
X224198469Y-60778381D01*
X224207998Y-60709165D01*
X224224619Y-60683302D01*
X224224121Y-60682920D01*
X224286478Y-60601654D01*
X224370273Y-60492450D01*
X224488284Y-60288049D01*
X224578606Y-60069993D01*
X224639693Y-59842014D01*
X224670500Y-59608011D01*
X224670500Y-59371989D01*
X224639693Y-59137986D01*
X224578606Y-58910007D01*
X224488284Y-58691951D01*
X224488282Y-58691948D01*
X224488280Y-58691943D01*
X224438137Y-58605094D01*
X224370273Y-58487550D01*
X224226592Y-58300301D01*
X224226587Y-58300295D01*
X224059704Y-58133412D01*
X224059697Y-58133406D01*
X223872454Y-57989730D01*
X223872453Y-57989729D01*
X223872450Y-57989727D01*
X223772033Y-57931751D01*
X223668056Y-57871719D01*
X223668045Y-57871714D01*
X223449993Y-57781394D01*
X223222010Y-57720306D01*
X222988020Y-57689501D01*
X222988017Y-57689500D01*
X222988011Y-57689500D01*
X222751989Y-57689500D01*
X222751983Y-57689500D01*
X222751979Y-57689501D01*
X222517989Y-57720306D01*
X222290006Y-57781394D01*
X222071954Y-57871714D01*
X222071943Y-57871719D01*
X221867545Y-57989730D01*
X221680302Y-58133406D01*
X221680295Y-58133412D01*
X221513412Y-58300295D01*
X221513406Y-58300302D01*
X221369730Y-58487545D01*
X221251719Y-58691943D01*
X221251714Y-58691954D01*
X221161394Y-58910006D01*
X221100306Y-59137989D01*
X221069501Y-59371979D01*
X221069500Y-59371995D01*
X221069500Y-59608004D01*
X221069501Y-59608020D01*
X221100306Y-59842011D01*
X221103150Y-59852624D01*
X221101485Y-59922474D01*
X221062321Y-59980335D01*
X220998091Y-60007838D01*
X220929189Y-59996249D01*
X220895693Y-59972395D01*
X217594510Y-56671212D01*
X217561025Y-56609889D01*
X217558191Y-56583531D01*
X217558191Y-56200791D01*
X217558190Y-56200776D01*
X217553755Y-56144418D01*
X217547788Y-56068588D01*
X217492788Y-55850317D01*
X217399699Y-55645374D01*
X217298445Y-55499223D01*
X217271517Y-55460354D01*
X217271514Y-55460350D01*
X217271511Y-55460346D01*
X217112346Y-55301181D01*
X217112342Y-55301178D01*
X217112337Y-55301174D01*
X216927324Y-55172997D01*
X216927322Y-55172995D01*
X216927318Y-55172993D01*
X216722375Y-55079904D01*
X216722373Y-55079903D01*
X216722370Y-55079902D01*
X216504112Y-55024905D01*
X216504105Y-55024904D01*
X216371914Y-55014500D01*
X216371909Y-55014500D01*
X215546468Y-55014500D01*
X215479429Y-54994815D01*
X215458787Y-54978181D01*
X214742787Y-54262181D01*
X214709302Y-54200858D01*
X214714286Y-54131166D01*
X214756158Y-54075233D01*
X214821622Y-54050816D01*
X214830468Y-54050500D01*
X226427525Y-54050500D01*
X226572475Y-54050500D01*
X233825500Y-54050500D01*
X233892539Y-54070185D01*
G37*
%TD.AperFunction*%
%TA.AperFunction,Conductor*%
G36*
X224625571Y-73610185D02*
G01*
X224646213Y-73626819D01*
X225063181Y-74043787D01*
X225096666Y-74105110D01*
X225099500Y-74131468D01*
X225099500Y-96868531D01*
X225079815Y-96935570D01*
X225063181Y-96956212D01*
X224445685Y-97573707D01*
X224384362Y-97607192D01*
X224341820Y-97608964D01*
X224227293Y-97593887D01*
X224118020Y-97579501D01*
X224118017Y-97579500D01*
X224118011Y-97579500D01*
X223881989Y-97579500D01*
X223881983Y-97579500D01*
X223881979Y-97579501D01*
X223647989Y-97610306D01*
X223420006Y-97671394D01*
X223201954Y-97761714D01*
X223201943Y-97761719D01*
X222997545Y-97879730D01*
X222810302Y-98023406D01*
X222810295Y-98023412D01*
X222643412Y-98190295D01*
X222643406Y-98190302D01*
X222499730Y-98377545D01*
X222381719Y-98581943D01*
X222381714Y-98581954D01*
X222291394Y-98800006D01*
X222230306Y-99027989D01*
X222199501Y-99261979D01*
X222199500Y-99261995D01*
X222199500Y-99498004D01*
X222199501Y-99498020D01*
X222228245Y-99716357D01*
X222230307Y-99732014D01*
X222258227Y-99836213D01*
X222291394Y-99959993D01*
X222381714Y-100178045D01*
X222381719Y-100178056D01*
X222434676Y-100269778D01*
X222499727Y-100382450D01*
X222499729Y-100382453D01*
X222499730Y-100382454D01*
X222643406Y-100569697D01*
X222643412Y-100569704D01*
X222810295Y-100736587D01*
X222810301Y-100736592D01*
X222997550Y-100880273D01*
X223128918Y-100956118D01*
X223201943Y-100998280D01*
X223201948Y-100998282D01*
X223201951Y-100998284D01*
X223420007Y-101088606D01*
X223647986Y-101149693D01*
X223768739Y-101165590D01*
X223768747Y-101165591D01*
X223832644Y-101193857D01*
X223840243Y-101200849D01*
X225743632Y-103104238D01*
X225743646Y-103104253D01*
X225746757Y-103107364D01*
X225746758Y-103107365D01*
X225902635Y-103263242D01*
X225902638Y-103263244D01*
X225906080Y-103266686D01*
X225904721Y-103268044D01*
X225938454Y-103319734D01*
X225938942Y-103389602D01*
X225901580Y-103448643D01*
X225838229Y-103478112D01*
X225819724Y-103479500D01*
X224631468Y-103479500D01*
X224564429Y-103459815D01*
X224543787Y-103443181D01*
X220936819Y-99836213D01*
X220903334Y-99774890D01*
X220900500Y-99748532D01*
X220900500Y-95598196D01*
X220920185Y-95531157D01*
X220972989Y-95485402D01*
X221042147Y-95475458D01*
X221105703Y-95504483D01*
X221143477Y-95563261D01*
X221144275Y-95566103D01*
X221161393Y-95629991D01*
X221251714Y-95848045D01*
X221251719Y-95848056D01*
X221286350Y-95908037D01*
X221369727Y-96052450D01*
X221369729Y-96052453D01*
X221369730Y-96052454D01*
X221513406Y-96239697D01*
X221513412Y-96239704D01*
X221680295Y-96406587D01*
X221680301Y-96406592D01*
X221867550Y-96550273D01*
X221998918Y-96626118D01*
X222071943Y-96668280D01*
X222071948Y-96668282D01*
X222071951Y-96668284D01*
X222290007Y-96758606D01*
X222517986Y-96819693D01*
X222751989Y-96850500D01*
X222751996Y-96850500D01*
X222988004Y-96850500D01*
X222988011Y-96850500D01*
X223222014Y-96819693D01*
X223449993Y-96758606D01*
X223668049Y-96668284D01*
X223872450Y-96550273D01*
X224059699Y-96406592D01*
X224226592Y-96239699D01*
X224370273Y-96052450D01*
X224488284Y-95848049D01*
X224578606Y-95629993D01*
X224639693Y-95402014D01*
X224670500Y-95168011D01*
X224670500Y-94931989D01*
X224639693Y-94697986D01*
X224578606Y-94470007D01*
X224488284Y-94251951D01*
X224488282Y-94251948D01*
X224488280Y-94251943D01*
X224426753Y-94145377D01*
X224370273Y-94047550D01*
X224257768Y-93900930D01*
X224226593Y-93860302D01*
X224226587Y-93860295D01*
X224059704Y-93693412D01*
X224059697Y-93693406D01*
X223869368Y-93547362D01*
X223828165Y-93490934D01*
X223824010Y-93421188D01*
X223857178Y-93361299D01*
X223861583Y-93356893D01*
X223981859Y-93191349D01*
X224074755Y-93009029D01*
X224137990Y-92814413D01*
X224146609Y-92760000D01*
X223303012Y-92760000D01*
X223335925Y-92702993D01*
X223370000Y-92575826D01*
X223370000Y-92444174D01*
X223335925Y-92317007D01*
X223303012Y-92260000D01*
X224146609Y-92260000D01*
X224137990Y-92205586D01*
X224074755Y-92010970D01*
X223981859Y-91828650D01*
X223861582Y-91663105D01*
X223861582Y-91663104D01*
X223857173Y-91658695D01*
X223823688Y-91597372D01*
X223828672Y-91527680D01*
X223869368Y-91472638D01*
X223922653Y-91431751D01*
X224059699Y-91326592D01*
X224226592Y-91159699D01*
X224370273Y-90972450D01*
X224488284Y-90768049D01*
X224578606Y-90549993D01*
X224639693Y-90322014D01*
X224670500Y-90088011D01*
X224670500Y-89851989D01*
X224639693Y-89617986D01*
X224578606Y-89390007D01*
X224488284Y-89171951D01*
X224488282Y-89171948D01*
X224488280Y-89171943D01*
X224446118Y-89098918D01*
X224370273Y-88967550D01*
X224263155Y-88827951D01*
X224224121Y-88777080D01*
X224225286Y-88776185D01*
X224198469Y-88718381D01*
X224207998Y-88649165D01*
X224224619Y-88623302D01*
X224224121Y-88622920D01*
X224284459Y-88544285D01*
X224370273Y-88432450D01*
X224488284Y-88228049D01*
X224578606Y-88009993D01*
X224639693Y-87782014D01*
X224670500Y-87548011D01*
X224670500Y-87311989D01*
X224639693Y-87077986D01*
X224578606Y-86850007D01*
X224488284Y-86631951D01*
X224488282Y-86631948D01*
X224488280Y-86631943D01*
X224422963Y-86518812D01*
X224370273Y-86427550D01*
X224331034Y-86376413D01*
X224224121Y-86237080D01*
X224225286Y-86236185D01*
X224198469Y-86178381D01*
X224207998Y-86109165D01*
X224224619Y-86083302D01*
X224224121Y-86082920D01*
X224278814Y-86011641D01*
X224370273Y-85892450D01*
X224488284Y-85688049D01*
X224578606Y-85469993D01*
X224639693Y-85242014D01*
X224670500Y-85008011D01*
X224670500Y-84771989D01*
X224639693Y-84537986D01*
X224578606Y-84310007D01*
X224488284Y-84091951D01*
X224488282Y-84091948D01*
X224488280Y-84091943D01*
X224428264Y-83987993D01*
X224370273Y-83887550D01*
X224321073Y-83823431D01*
X224224121Y-83697080D01*
X224225286Y-83696185D01*
X224198469Y-83638381D01*
X224207998Y-83569165D01*
X224224619Y-83543302D01*
X224224121Y-83542920D01*
X224278814Y-83471641D01*
X224370273Y-83352450D01*
X224488284Y-83148049D01*
X224578606Y-82929993D01*
X224639693Y-82702014D01*
X224670500Y-82468011D01*
X224670500Y-82231989D01*
X224639693Y-81997986D01*
X224578606Y-81770007D01*
X224488284Y-81551951D01*
X224488282Y-81551948D01*
X224488280Y-81551943D01*
X224398534Y-81396500D01*
X224370273Y-81347550D01*
X224320734Y-81282989D01*
X224224121Y-81157080D01*
X224225286Y-81156185D01*
X224198469Y-81098381D01*
X224207998Y-81029165D01*
X224224619Y-81003302D01*
X224224121Y-81002920D01*
X224319483Y-80878641D01*
X224370273Y-80812450D01*
X224488284Y-80608049D01*
X224578606Y-80389993D01*
X224639693Y-80162014D01*
X224670500Y-79928011D01*
X224670500Y-79691989D01*
X224639693Y-79457986D01*
X224578606Y-79230007D01*
X224488284Y-79011951D01*
X224488282Y-79011947D01*
X224488280Y-79011943D01*
X224413361Y-78882181D01*
X224370273Y-78807550D01*
X224298325Y-78713785D01*
X224224121Y-78617080D01*
X224225286Y-78616185D01*
X224198469Y-78558381D01*
X224207998Y-78489165D01*
X224224619Y-78463302D01*
X224224121Y-78462920D01*
X224286432Y-78381714D01*
X224370273Y-78272450D01*
X224488284Y-78068049D01*
X224578606Y-77849993D01*
X224639693Y-77622014D01*
X224670500Y-77388011D01*
X224670500Y-77151989D01*
X224639693Y-76917986D01*
X224578606Y-76690007D01*
X224488284Y-76471951D01*
X224488282Y-76471948D01*
X224488280Y-76471943D01*
X224422285Y-76357638D01*
X224370273Y-76267550D01*
X224265111Y-76130500D01*
X224224121Y-76077080D01*
X224225286Y-76076185D01*
X224198469Y-76018381D01*
X224207998Y-75949165D01*
X224224619Y-75923302D01*
X224224121Y-75922920D01*
X224278814Y-75851641D01*
X224370273Y-75732450D01*
X224488284Y-75528049D01*
X224578606Y-75309993D01*
X224639693Y-75082014D01*
X224670500Y-74848011D01*
X224670500Y-74611989D01*
X224639693Y-74377986D01*
X224578606Y-74150007D01*
X224488284Y-73931951D01*
X224488282Y-73931948D01*
X224488280Y-73931943D01*
X224398534Y-73776500D01*
X224382061Y-73708600D01*
X224404913Y-73642573D01*
X224459834Y-73599383D01*
X224505921Y-73590500D01*
X224558532Y-73590500D01*
X224625571Y-73610185D01*
G37*
%TD.AperFunction*%
%TA.AperFunction,Conductor*%
G36*
X217105703Y-88188593D02*
G01*
X217139061Y-88234853D01*
X217201954Y-88386690D01*
X217201958Y-88386700D01*
X217333075Y-88613803D01*
X217492718Y-88821851D01*
X217492726Y-88821860D01*
X217678140Y-89007274D01*
X217678148Y-89007281D01*
X217886196Y-89166924D01*
X218113299Y-89298041D01*
X218113309Y-89298046D01*
X218335321Y-89390006D01*
X218355581Y-89398398D01*
X218608884Y-89466270D01*
X218868880Y-89500500D01*
X218868887Y-89500500D01*
X219131113Y-89500500D01*
X219131120Y-89500500D01*
X219391116Y-89466270D01*
X219644419Y-89398398D01*
X219886697Y-89298043D01*
X220113803Y-89166924D01*
X220321851Y-89007282D01*
X220321855Y-89007277D01*
X220321860Y-89007274D01*
X220507274Y-88821860D01*
X220507277Y-88821855D01*
X220507282Y-88821851D01*
X220666924Y-88613803D01*
X220679223Y-88592499D01*
X220729789Y-88544285D01*
X220786610Y-88530500D01*
X221383813Y-88530500D01*
X221450852Y-88550185D01*
X221482189Y-88579014D01*
X221515879Y-88622920D01*
X221514720Y-88623808D01*
X221541537Y-88681662D01*
X221531983Y-88750876D01*
X221515385Y-88776701D01*
X221515879Y-88777080D01*
X221369730Y-88967545D01*
X221251719Y-89171943D01*
X221251714Y-89171954D01*
X221161394Y-89390006D01*
X221100306Y-89617989D01*
X221069501Y-89851979D01*
X221069500Y-89851995D01*
X221069500Y-90088004D01*
X221069501Y-90088020D01*
X221100306Y-90322010D01*
X221161394Y-90549993D01*
X221251714Y-90768045D01*
X221251719Y-90768056D01*
X221298813Y-90849624D01*
X221369727Y-90972450D01*
X221369729Y-90972453D01*
X221369730Y-90972454D01*
X221513406Y-91159697D01*
X221513412Y-91159704D01*
X221680295Y-91326587D01*
X221680302Y-91326593D01*
X221870631Y-91472638D01*
X221911834Y-91529066D01*
X221915989Y-91598812D01*
X221882832Y-91658690D01*
X221878415Y-91663106D01*
X221758140Y-91828650D01*
X221665244Y-92010970D01*
X221602009Y-92205586D01*
X221593391Y-92260000D01*
X222436988Y-92260000D01*
X222404075Y-92317007D01*
X222370000Y-92444174D01*
X222370000Y-92575826D01*
X222404075Y-92702993D01*
X222436988Y-92760000D01*
X221593391Y-92760000D01*
X221602009Y-92814413D01*
X221665244Y-93009029D01*
X221758140Y-93191349D01*
X221878417Y-93356894D01*
X221878417Y-93356895D01*
X221882826Y-93361304D01*
X221916311Y-93422627D01*
X221911327Y-93492319D01*
X221870632Y-93547361D01*
X221680295Y-93693412D01*
X221513412Y-93860295D01*
X221513406Y-93860302D01*
X221369730Y-94047545D01*
X221251719Y-94251943D01*
X221251714Y-94251954D01*
X221161394Y-94470006D01*
X221144275Y-94533897D01*
X221107910Y-94593557D01*
X221045063Y-94624086D01*
X220975687Y-94615791D01*
X220921809Y-94571306D01*
X220900535Y-94504754D01*
X220900500Y-94501803D01*
X220900500Y-93389778D01*
X220895292Y-93356894D01*
X220866015Y-93172049D01*
X220831955Y-93067221D01*
X220797896Y-92962396D01*
X220797895Y-92962393D01*
X220746746Y-92862010D01*
X220697815Y-92765978D01*
X220685750Y-92749372D01*
X220568248Y-92587642D01*
X220568244Y-92587638D01*
X220568242Y-92587635D01*
X220412365Y-92431758D01*
X220412364Y-92431757D01*
X220409253Y-92428646D01*
X220409238Y-92428632D01*
X216936819Y-88956213D01*
X216903334Y-88894890D01*
X216900500Y-88868532D01*
X216900500Y-88282306D01*
X216920185Y-88215267D01*
X216972989Y-88169512D01*
X217042147Y-88159568D01*
X217105703Y-88188593D01*
G37*
%TD.AperFunction*%
%TA.AperFunction,Conductor*%
G36*
X256868834Y-89909972D02*
G01*
X256924767Y-89951844D01*
X256949184Y-90017308D01*
X256949500Y-90026154D01*
X256949500Y-92672440D01*
X256929815Y-92739479D01*
X256877011Y-92785234D01*
X256807853Y-92795178D01*
X256744297Y-92766153D01*
X256719962Y-92737537D01*
X256642319Y-92611659D01*
X256642316Y-92611655D01*
X256586819Y-92556158D01*
X256553334Y-92494835D01*
X256550500Y-92468477D01*
X256550500Y-90154552D01*
X256570185Y-90087513D01*
X256599013Y-90056176D01*
X256689699Y-89986592D01*
X256689704Y-89986587D01*
X256737819Y-89938473D01*
X256799142Y-89904988D01*
X256868834Y-89909972D01*
G37*
%TD.AperFunction*%
%TA.AperFunction,Conductor*%
G36*
X211935571Y-67420185D02*
G01*
X211956213Y-67436819D01*
X213925579Y-69406185D01*
X213959064Y-69467508D01*
X213961516Y-69484137D01*
X213967597Y-69561414D01*
X213967598Y-69561420D01*
X214022595Y-69779678D01*
X214022596Y-69779681D01*
X214115684Y-69984622D01*
X214115690Y-69984632D01*
X214243867Y-70169645D01*
X214243871Y-70169650D01*
X214243874Y-70169654D01*
X214403039Y-70328819D01*
X214403043Y-70328822D01*
X214403047Y-70328825D01*
X214461757Y-70369499D01*
X214588067Y-70457007D01*
X214793010Y-70550096D01*
X214793014Y-70550097D01*
X215011272Y-70605094D01*
X215011274Y-70605094D01*
X215011281Y-70605096D01*
X215143476Y-70615500D01*
X215555082Y-70615499D01*
X215622121Y-70635183D01*
X215627967Y-70639181D01*
X215681603Y-70678149D01*
X215708671Y-70697815D01*
X215837068Y-70763237D01*
X215905086Y-70797895D01*
X215905089Y-70797896D01*
X215985385Y-70823985D01*
X216114742Y-70866015D01*
X216332471Y-70900500D01*
X216552914Y-70900500D01*
X221338541Y-70900500D01*
X221405580Y-70920185D01*
X221451335Y-70972989D01*
X221461279Y-71042147D01*
X221436917Y-71099986D01*
X221369730Y-71187545D01*
X221251719Y-71391943D01*
X221251714Y-71391954D01*
X221161394Y-71610006D01*
X221100306Y-71837989D01*
X221069501Y-72071979D01*
X221069500Y-72071995D01*
X221069500Y-72308004D01*
X221069501Y-72308020D01*
X221100306Y-72542010D01*
X221161394Y-72769993D01*
X221251714Y-72988045D01*
X221251719Y-72988056D01*
X221313814Y-73095606D01*
X221369727Y-73192450D01*
X221369729Y-73192453D01*
X221369730Y-73192454D01*
X221515879Y-73382920D01*
X221514720Y-73383808D01*
X221541537Y-73441662D01*
X221531983Y-73510876D01*
X221515385Y-73536701D01*
X221515879Y-73537080D01*
X221369730Y-73727545D01*
X221251719Y-73931943D01*
X221251711Y-73931959D01*
X221214022Y-74022952D01*
X221170182Y-74077356D01*
X221103887Y-74099421D01*
X221099461Y-74099500D01*
X217174023Y-74099500D01*
X217106984Y-74079815D01*
X217061229Y-74027011D01*
X217051285Y-73957853D01*
X217051550Y-73956102D01*
X217057693Y-73917317D01*
X217057693Y-73712682D01*
X217025683Y-73510582D01*
X216962448Y-73315968D01*
X216869552Y-73133650D01*
X216837167Y-73089077D01*
X216837167Y-73089076D01*
X216157693Y-73768551D01*
X216157693Y-73762339D01*
X216130434Y-73660606D01*
X216077773Y-73569394D01*
X216003299Y-73494920D01*
X215912087Y-73442259D01*
X215810354Y-73415000D01*
X215804139Y-73415000D01*
X216483615Y-72735524D01*
X216483614Y-72735523D01*
X216439052Y-72703147D01*
X216439043Y-72703141D01*
X216256724Y-72610244D01*
X216062110Y-72547009D01*
X215860010Y-72515000D01*
X215655376Y-72515000D01*
X215453275Y-72547009D01*
X215258661Y-72610244D01*
X215076337Y-72703143D01*
X215031770Y-72735523D01*
X215031770Y-72735524D01*
X215711247Y-73415000D01*
X215705032Y-73415000D01*
X215603299Y-73442259D01*
X215512087Y-73494920D01*
X215437613Y-73569394D01*
X215384952Y-73660606D01*
X215357693Y-73762339D01*
X215357693Y-73768553D01*
X214678217Y-73089077D01*
X214678216Y-73089077D01*
X214645836Y-73133644D01*
X214552937Y-73315968D01*
X214489702Y-73510582D01*
X214457693Y-73712682D01*
X214457693Y-73917317D01*
X214463836Y-73956102D01*
X214454882Y-74025395D01*
X214409885Y-74078847D01*
X214343134Y-74099487D01*
X214341363Y-74099500D01*
X209610222Y-74099500D01*
X209389778Y-74099500D01*
X209354358Y-74105110D01*
X209172047Y-74133985D01*
X208962396Y-74202103D01*
X208962393Y-74202104D01*
X208765974Y-74302187D01*
X208587641Y-74431752D01*
X208587636Y-74431756D01*
X208431756Y-74587636D01*
X208431752Y-74587641D01*
X208302187Y-74765974D01*
X208202104Y-74962393D01*
X208202103Y-74962396D01*
X208133985Y-75172047D01*
X208099500Y-75389778D01*
X208099500Y-88868531D01*
X208079815Y-88935570D01*
X208063181Y-88956212D01*
X206340242Y-90679150D01*
X206278919Y-90712635D01*
X206268747Y-90714408D01*
X206147989Y-90730306D01*
X205920003Y-90791395D01*
X205721952Y-90873430D01*
X205652483Y-90880899D01*
X205590004Y-90849624D01*
X205554352Y-90789535D01*
X205550500Y-90758869D01*
X205550500Y-87720000D01*
X205639244Y-87720000D01*
X205753694Y-87689333D01*
X205830000Y-87645277D01*
X205830000Y-88670000D01*
X206527828Y-88670000D01*
X206527844Y-88669999D01*
X206587372Y-88663598D01*
X206587379Y-88663596D01*
X206722086Y-88613354D01*
X206722093Y-88613350D01*
X206837187Y-88527190D01*
X206837190Y-88527187D01*
X206923350Y-88412093D01*
X206923354Y-88412086D01*
X206973596Y-88277379D01*
X206973598Y-88277372D01*
X206979999Y-88217844D01*
X206980000Y-88217827D01*
X206980000Y-87520000D01*
X205955278Y-87520000D01*
X205999333Y-87443694D01*
X206030000Y-87329244D01*
X206030000Y-87210756D01*
X205999333Y-87096306D01*
X205955278Y-87020000D01*
X206980000Y-87020000D01*
X206980000Y-86322172D01*
X206979999Y-86322155D01*
X206973598Y-86262627D01*
X206973596Y-86262619D01*
X206936654Y-86163575D01*
X206931669Y-86093883D01*
X206965151Y-86032562D01*
X207011938Y-85985776D01*
X207163599Y-85788127D01*
X207288164Y-85572373D01*
X207383502Y-85342207D01*
X207447982Y-85101565D01*
X207480500Y-84854565D01*
X207480500Y-84605435D01*
X207447982Y-84358435D01*
X207383502Y-84117793D01*
X207317158Y-83957624D01*
X207288169Y-83887638D01*
X207288162Y-83887623D01*
X207163599Y-83671873D01*
X207011939Y-83474225D01*
X207011933Y-83474218D01*
X206856819Y-83319104D01*
X206823334Y-83257781D01*
X206820500Y-83231423D01*
X206820500Y-81174569D01*
X206840185Y-81107530D01*
X206846124Y-81099083D01*
X206874838Y-81061662D01*
X206920273Y-81002450D01*
X207038284Y-80798049D01*
X207128606Y-80579993D01*
X207189693Y-80352014D01*
X207220500Y-80118011D01*
X207220500Y-79881989D01*
X207189693Y-79647986D01*
X207128606Y-79420007D01*
X207038284Y-79201951D01*
X207038282Y-79201948D01*
X207038280Y-79201943D01*
X206982575Y-79105461D01*
X206920273Y-78997550D01*
X206780881Y-78815890D01*
X206776593Y-78810302D01*
X206776587Y-78810295D01*
X206609704Y-78643412D01*
X206609697Y-78643406D01*
X206422454Y-78499730D01*
X206422453Y-78499729D01*
X206422450Y-78499727D01*
X206340957Y-78452677D01*
X206218056Y-78381719D01*
X206218045Y-78381714D01*
X205999993Y-78291394D01*
X205886162Y-78260893D01*
X205772014Y-78230307D01*
X205772013Y-78230306D01*
X205772010Y-78230306D01*
X205658314Y-78215338D01*
X205594418Y-78187071D01*
X205555947Y-78128747D01*
X205550500Y-78092399D01*
X205550500Y-74999443D01*
X205570185Y-74932404D01*
X205622989Y-74886649D01*
X205692147Y-74876705D01*
X205713504Y-74881737D01*
X205797302Y-74909505D01*
X205797309Y-74909506D01*
X205900019Y-74919999D01*
X206249999Y-74919999D01*
X206250000Y-74919998D01*
X206250000Y-73935686D01*
X206254394Y-73940080D01*
X206345606Y-73992741D01*
X206447339Y-74020000D01*
X206552661Y-74020000D01*
X206654394Y-73992741D01*
X206745606Y-73940080D01*
X206750000Y-73935686D01*
X206750000Y-74919999D01*
X207099972Y-74919999D01*
X207099986Y-74919998D01*
X207202697Y-74909505D01*
X207369119Y-74854358D01*
X207369124Y-74854356D01*
X207518345Y-74762315D01*
X207642315Y-74638345D01*
X207734356Y-74489124D01*
X207734358Y-74489119D01*
X207789505Y-74322697D01*
X207789506Y-74322690D01*
X207799999Y-74219986D01*
X207800000Y-74219973D01*
X207800000Y-73870000D01*
X206815686Y-73870000D01*
X206820080Y-73865606D01*
X206872741Y-73774394D01*
X206900000Y-73672661D01*
X206900000Y-73567339D01*
X206872741Y-73465606D01*
X206820080Y-73374394D01*
X206815686Y-73370000D01*
X207799999Y-73370000D01*
X207799999Y-73020028D01*
X207799998Y-73020013D01*
X207789505Y-72917302D01*
X207757855Y-72821787D01*
X207734357Y-72750878D01*
X207734356Y-72750875D01*
X207642315Y-72601654D01*
X207518345Y-72477684D01*
X207369124Y-72385643D01*
X207369119Y-72385641D01*
X207202697Y-72330494D01*
X207202690Y-72330493D01*
X207099986Y-72320000D01*
X206750000Y-72320000D01*
X206750000Y-73304314D01*
X206745606Y-73299920D01*
X206654394Y-73247259D01*
X206552661Y-73220000D01*
X206447339Y-73220000D01*
X206345606Y-73247259D01*
X206254394Y-73299920D01*
X206250000Y-73304314D01*
X206250000Y-72320000D01*
X205900028Y-72320000D01*
X205900012Y-72320001D01*
X205797302Y-72330494D01*
X205713504Y-72358262D01*
X205643675Y-72360664D01*
X205583633Y-72324932D01*
X205552441Y-72262411D01*
X205550500Y-72240556D01*
X205550500Y-67741130D01*
X205570185Y-67674091D01*
X205622989Y-67628336D01*
X205692147Y-67618392D01*
X205721952Y-67626568D01*
X205920007Y-67708606D01*
X206147986Y-67769693D01*
X206381989Y-67800500D01*
X206381996Y-67800500D01*
X206618004Y-67800500D01*
X206618011Y-67800500D01*
X206852014Y-67769693D01*
X207079993Y-67708606D01*
X207298049Y-67618284D01*
X207502450Y-67500273D01*
X207599083Y-67426123D01*
X207664252Y-67400930D01*
X207674569Y-67400500D01*
X211868532Y-67400500D01*
X211935571Y-67420185D01*
G37*
%TD.AperFunction*%
%TA.AperFunction,Conductor*%
G36*
X247305571Y-60420185D02*
G01*
X247326213Y-60436819D01*
X248563181Y-61673787D01*
X248596666Y-61735110D01*
X248599500Y-61761468D01*
X248599500Y-64455430D01*
X248579815Y-64522469D01*
X248573876Y-64530916D01*
X248499730Y-64627545D01*
X248381719Y-64831943D01*
X248381714Y-64831954D01*
X248291394Y-65050006D01*
X248230306Y-65277989D01*
X248199501Y-65511979D01*
X248199500Y-65511995D01*
X248199500Y-65748004D01*
X248199501Y-65748020D01*
X248230306Y-65982010D01*
X248291394Y-66209993D01*
X248381714Y-66428045D01*
X248381719Y-66428056D01*
X248440031Y-66529053D01*
X248499727Y-66632450D01*
X248499729Y-66632453D01*
X248499730Y-66632454D01*
X248643406Y-66819697D01*
X248643412Y-66819704D01*
X248810295Y-66986587D01*
X248810302Y-66986593D01*
X248916712Y-67068244D01*
X248997550Y-67130273D01*
X249128918Y-67206118D01*
X249201943Y-67248280D01*
X249201948Y-67248282D01*
X249201951Y-67248284D01*
X249420007Y-67338606D01*
X249647986Y-67399693D01*
X249881989Y-67430500D01*
X249881996Y-67430500D01*
X250118004Y-67430500D01*
X250118011Y-67430500D01*
X250352014Y-67399693D01*
X250579993Y-67338606D01*
X250798049Y-67248284D01*
X251002450Y-67130273D01*
X251099083Y-67056123D01*
X251164252Y-67030930D01*
X251174569Y-67030500D01*
X252368532Y-67030500D01*
X252435571Y-67050185D01*
X252456213Y-67066819D01*
X254729193Y-69339799D01*
X254761753Y-69397181D01*
X254764902Y-69409679D01*
X254764902Y-69409680D01*
X254857991Y-69614622D01*
X254857997Y-69614632D01*
X254986174Y-69799645D01*
X254986178Y-69799650D01*
X254986181Y-69799654D01*
X255145346Y-69958819D01*
X255145350Y-69958822D01*
X255145354Y-69958825D01*
X255204065Y-69999500D01*
X255330374Y-70087007D01*
X255376783Y-70108086D01*
X255429677Y-70153730D01*
X255449500Y-70220729D01*
X255449500Y-72638906D01*
X255429815Y-72705945D01*
X255425818Y-72711792D01*
X255388140Y-72763650D01*
X255295244Y-72945968D01*
X255232009Y-73140582D01*
X255200000Y-73342682D01*
X255200000Y-73547317D01*
X255232009Y-73749417D01*
X255295244Y-73944031D01*
X255388142Y-74126353D01*
X255425817Y-74178207D01*
X255449298Y-74244013D01*
X255449500Y-74251093D01*
X255449500Y-84799532D01*
X255429815Y-84866571D01*
X255377011Y-84912326D01*
X255307853Y-84922270D01*
X255244297Y-84893245D01*
X255237819Y-84887213D01*
X254572582Y-84221976D01*
X254572573Y-84221966D01*
X254535334Y-84184727D01*
X254412365Y-84061758D01*
X254412361Y-84061755D01*
X254412357Y-84061751D01*
X254234025Y-83932187D01*
X254234024Y-83932186D01*
X254234022Y-83932185D01*
X254146412Y-83887545D01*
X254037606Y-83832104D01*
X254037603Y-83832103D01*
X253827952Y-83763985D01*
X253719086Y-83746742D01*
X253610222Y-83729499D01*
X253389778Y-83729499D01*
X253384667Y-83729499D01*
X253384643Y-83729500D01*
X249889778Y-83729500D01*
X249846232Y-83736397D01*
X249672045Y-83763985D01*
X249489087Y-83823431D01*
X249450770Y-83829500D01*
X248885791Y-83829500D01*
X248885776Y-83829501D01*
X248753586Y-83839904D01*
X248753579Y-83839905D01*
X248535321Y-83894902D01*
X248535318Y-83894903D01*
X248330377Y-83987991D01*
X248330367Y-83987997D01*
X248145354Y-84116174D01*
X248145342Y-84116184D01*
X247986184Y-84275342D01*
X247986174Y-84275354D01*
X247857997Y-84460367D01*
X247857991Y-84460377D01*
X247764903Y-84665318D01*
X247764902Y-84665321D01*
X247709905Y-84883579D01*
X247709904Y-84883586D01*
X247699500Y-85015777D01*
X247699500Y-86244208D01*
X247699501Y-86244223D01*
X247709904Y-86376413D01*
X247709905Y-86376420D01*
X247764902Y-86594678D01*
X247764903Y-86594681D01*
X247857991Y-86799622D01*
X247857997Y-86799632D01*
X247986174Y-86984645D01*
X247986178Y-86984650D01*
X247986181Y-86984654D01*
X247986184Y-86984657D01*
X248063181Y-87061654D01*
X248096666Y-87122977D01*
X248099500Y-87149335D01*
X248099500Y-87868531D01*
X248079815Y-87935570D01*
X248063181Y-87956212D01*
X246189178Y-89830214D01*
X246127855Y-89863699D01*
X246058163Y-89858715D01*
X246002230Y-89816843D01*
X245977813Y-89751379D01*
X245978557Y-89726354D01*
X246000500Y-89559691D01*
X246000500Y-89297451D01*
X245966270Y-89037455D01*
X245898398Y-88784152D01*
X245896802Y-88780299D01*
X245798046Y-88541880D01*
X245798041Y-88541870D01*
X245666924Y-88314767D01*
X245507281Y-88106719D01*
X245404552Y-88003990D01*
X245371069Y-87942670D01*
X245369767Y-87935741D01*
X245366015Y-87912049D01*
X245297895Y-87702395D01*
X245297895Y-87702394D01*
X245226044Y-87561381D01*
X245197815Y-87505978D01*
X245068242Y-87327636D01*
X244822321Y-87081715D01*
X244788836Y-87020392D01*
X244793820Y-86950700D01*
X244835692Y-86894767D01*
X244862552Y-86879472D01*
X244886697Y-86869471D01*
X245113803Y-86738352D01*
X245321851Y-86578710D01*
X245321855Y-86578705D01*
X245321860Y-86578702D01*
X245507274Y-86393288D01*
X245507277Y-86393283D01*
X245507282Y-86393279D01*
X245666924Y-86185231D01*
X245798043Y-85958125D01*
X245898398Y-85715847D01*
X245966270Y-85462544D01*
X246000500Y-85202548D01*
X246000500Y-84940308D01*
X245966270Y-84680312D01*
X245898398Y-84427009D01*
X245849934Y-84310006D01*
X245798046Y-84184737D01*
X245798041Y-84184727D01*
X245666924Y-83957624D01*
X245507281Y-83749576D01*
X245507274Y-83749568D01*
X245321860Y-83564154D01*
X245321851Y-83564146D01*
X245113803Y-83404503D01*
X244886700Y-83273386D01*
X244886690Y-83273381D01*
X244644428Y-83173033D01*
X244644421Y-83173031D01*
X244644419Y-83173030D01*
X244391116Y-83105158D01*
X244333339Y-83097551D01*
X244131127Y-83070928D01*
X244131120Y-83070928D01*
X244031468Y-83070928D01*
X243964429Y-83051243D01*
X243943787Y-83034609D01*
X243835644Y-82926466D01*
X243802159Y-82865143D01*
X243807143Y-82795451D01*
X243849015Y-82739518D01*
X243914479Y-82715101D01*
X243923325Y-82714785D01*
X244131113Y-82714785D01*
X244131120Y-82714785D01*
X244391116Y-82680555D01*
X244644419Y-82612683D01*
X244886697Y-82512328D01*
X245113803Y-82381209D01*
X245321851Y-82221567D01*
X245321855Y-82221562D01*
X245321860Y-82221559D01*
X245507274Y-82036145D01*
X245507277Y-82036140D01*
X245507282Y-82036136D01*
X245666924Y-81828088D01*
X245798043Y-81600982D01*
X245898398Y-81358704D01*
X245966270Y-81105401D01*
X246000500Y-80845405D01*
X246000500Y-80583165D01*
X245966270Y-80323169D01*
X245898398Y-80069866D01*
X245869088Y-79999105D01*
X245798046Y-79827594D01*
X245798041Y-79827584D01*
X245666924Y-79600481D01*
X245507281Y-79392433D01*
X245507274Y-79392425D01*
X245321860Y-79207011D01*
X245321851Y-79207003D01*
X245189521Y-79105461D01*
X245189512Y-79105455D01*
X245113803Y-79047361D01*
X245113799Y-79047359D01*
X245113797Y-79047357D01*
X245052465Y-79011947D01*
X248000000Y-79011947D01*
X248000000Y-79248052D01*
X248036934Y-79481247D01*
X248109897Y-79705802D01*
X248217087Y-79916174D01*
X248277338Y-79999104D01*
X248277340Y-79999105D01*
X249017037Y-79259408D01*
X249034075Y-79322993D01*
X249099901Y-79437007D01*
X249192993Y-79530099D01*
X249307007Y-79595925D01*
X249370590Y-79612962D01*
X248630893Y-80352658D01*
X248713828Y-80412914D01*
X248924197Y-80520102D01*
X249148752Y-80593065D01*
X249148751Y-80593065D01*
X249381948Y-80630000D01*
X249618052Y-80630000D01*
X249851247Y-80593065D01*
X250075802Y-80520102D01*
X250286163Y-80412918D01*
X250286169Y-80412914D01*
X250369104Y-80352658D01*
X250369105Y-80352658D01*
X249629408Y-79612962D01*
X249692993Y-79595925D01*
X249807007Y-79530099D01*
X249900099Y-79437007D01*
X249965925Y-79322993D01*
X249982962Y-79259409D01*
X250722658Y-79999105D01*
X250722658Y-79999104D01*
X250782914Y-79916169D01*
X250782918Y-79916163D01*
X250890102Y-79705802D01*
X250963065Y-79481247D01*
X251000000Y-79248052D01*
X251000000Y-79011947D01*
X250963065Y-78778752D01*
X250890102Y-78554197D01*
X250782914Y-78343828D01*
X250722658Y-78260894D01*
X250722658Y-78260893D01*
X249982962Y-79000590D01*
X249965925Y-78937007D01*
X249900099Y-78822993D01*
X249807007Y-78729901D01*
X249692993Y-78664075D01*
X249629409Y-78647037D01*
X250369105Y-77907340D01*
X250369104Y-77907338D01*
X250286174Y-77847087D01*
X250075802Y-77739897D01*
X249851247Y-77666934D01*
X249851248Y-77666934D01*
X249618052Y-77630000D01*
X249381948Y-77630000D01*
X249148752Y-77666934D01*
X248924197Y-77739897D01*
X248713830Y-77847084D01*
X248630894Y-77907340D01*
X249370591Y-78647037D01*
X249307007Y-78664075D01*
X249192993Y-78729901D01*
X249099901Y-78822993D01*
X249034075Y-78937007D01*
X249017037Y-79000590D01*
X248277340Y-78260894D01*
X248217084Y-78343830D01*
X248109897Y-78554197D01*
X248036934Y-78778752D01*
X248000000Y-79011947D01*
X245052465Y-79011947D01*
X244886700Y-78916243D01*
X244886690Y-78916238D01*
X244644428Y-78815890D01*
X244644421Y-78815888D01*
X244644419Y-78815887D01*
X244391116Y-78748015D01*
X244333339Y-78740408D01*
X244131127Y-78713785D01*
X244131120Y-78713785D01*
X244031468Y-78713785D01*
X243964429Y-78694100D01*
X243943787Y-78677466D01*
X243835644Y-78569323D01*
X243802159Y-78508000D01*
X243807143Y-78438308D01*
X243849015Y-78382375D01*
X243914479Y-78357958D01*
X243923325Y-78357642D01*
X244131113Y-78357642D01*
X244131120Y-78357642D01*
X244391116Y-78323412D01*
X244644419Y-78255540D01*
X244886697Y-78155185D01*
X245113803Y-78024066D01*
X245321851Y-77864424D01*
X245321855Y-77864419D01*
X245321860Y-77864416D01*
X245507274Y-77679002D01*
X245507277Y-77678997D01*
X245507282Y-77678993D01*
X245666924Y-77470945D01*
X245798043Y-77243839D01*
X245898398Y-77001561D01*
X245966270Y-76748258D01*
X246000500Y-76488262D01*
X246000500Y-76226022D01*
X245966270Y-75966026D01*
X245898398Y-75712723D01*
X245898394Y-75712713D01*
X245798046Y-75470451D01*
X245798041Y-75470441D01*
X245666924Y-75243338D01*
X245507281Y-75035290D01*
X245507274Y-75035282D01*
X245321860Y-74849868D01*
X245321851Y-74849860D01*
X245113803Y-74690217D01*
X244886700Y-74559100D01*
X244886690Y-74559095D01*
X244644428Y-74458747D01*
X244644421Y-74458745D01*
X244644419Y-74458744D01*
X244391116Y-74390872D01*
X244333339Y-74383265D01*
X244131127Y-74356642D01*
X244131120Y-74356642D01*
X244031468Y-74356642D01*
X243964429Y-74336957D01*
X243943787Y-74320323D01*
X243835645Y-74212181D01*
X243802160Y-74150858D01*
X243807144Y-74081166D01*
X243849016Y-74025233D01*
X243914480Y-74000816D01*
X243923326Y-74000500D01*
X244131113Y-74000500D01*
X244131120Y-74000500D01*
X244391116Y-73966270D01*
X244644419Y-73898398D01*
X244886697Y-73798043D01*
X245113803Y-73666924D01*
X245321851Y-73507282D01*
X245321855Y-73507277D01*
X245321860Y-73507274D01*
X245507274Y-73321860D01*
X245507277Y-73321855D01*
X245507282Y-73321851D01*
X245666924Y-73113803D01*
X245798043Y-72886697D01*
X245896081Y-72650013D01*
X248700000Y-72650013D01*
X248700000Y-73000000D01*
X249684314Y-73000000D01*
X249679920Y-73004394D01*
X249627259Y-73095606D01*
X249600000Y-73197339D01*
X249600000Y-73302661D01*
X249627259Y-73404394D01*
X249679920Y-73495606D01*
X249684314Y-73500000D01*
X248700001Y-73500000D01*
X248700001Y-73849986D01*
X248710494Y-73952697D01*
X248765641Y-74119119D01*
X248765643Y-74119124D01*
X248857684Y-74268345D01*
X248981654Y-74392315D01*
X249130875Y-74484356D01*
X249130880Y-74484358D01*
X249297302Y-74539505D01*
X249297309Y-74539506D01*
X249400019Y-74549999D01*
X249749999Y-74549999D01*
X249750000Y-74549998D01*
X249750000Y-73565686D01*
X249754394Y-73570080D01*
X249845606Y-73622741D01*
X249947339Y-73650000D01*
X250052661Y-73650000D01*
X250154394Y-73622741D01*
X250245606Y-73570080D01*
X250250000Y-73565686D01*
X250250000Y-74549999D01*
X250599972Y-74549999D01*
X250599986Y-74549998D01*
X250702697Y-74539505D01*
X250869119Y-74484358D01*
X250869124Y-74484356D01*
X251018345Y-74392315D01*
X251142315Y-74268345D01*
X251234356Y-74119124D01*
X251234358Y-74119119D01*
X251289505Y-73952697D01*
X251289506Y-73952690D01*
X251299999Y-73849986D01*
X251300000Y-73849973D01*
X251300000Y-73500000D01*
X250315686Y-73500000D01*
X250320080Y-73495606D01*
X250372741Y-73404394D01*
X250400000Y-73302661D01*
X250400000Y-73197339D01*
X250372741Y-73095606D01*
X250320080Y-73004394D01*
X250315686Y-73000000D01*
X251299999Y-73000000D01*
X251299999Y-72650028D01*
X251299998Y-72650013D01*
X251289505Y-72547302D01*
X251234358Y-72380880D01*
X251234356Y-72380875D01*
X251142315Y-72231654D01*
X251018345Y-72107684D01*
X250869124Y-72015643D01*
X250869119Y-72015641D01*
X250702697Y-71960494D01*
X250702690Y-71960493D01*
X250599986Y-71950000D01*
X250250000Y-71950000D01*
X250250000Y-72934314D01*
X250245606Y-72929920D01*
X250154394Y-72877259D01*
X250052661Y-72850000D01*
X249947339Y-72850000D01*
X249845606Y-72877259D01*
X249754394Y-72929920D01*
X249750000Y-72934314D01*
X249750000Y-71950000D01*
X249400028Y-71950000D01*
X249400012Y-71950001D01*
X249297302Y-71960494D01*
X249130880Y-72015641D01*
X249130875Y-72015643D01*
X248981654Y-72107684D01*
X248857684Y-72231654D01*
X248765643Y-72380875D01*
X248765641Y-72380880D01*
X248710494Y-72547302D01*
X248710493Y-72547309D01*
X248700000Y-72650013D01*
X245896081Y-72650013D01*
X245898398Y-72644419D01*
X245966270Y-72391116D01*
X246000500Y-72131120D01*
X246000500Y-71868880D01*
X245966270Y-71608884D01*
X245898398Y-71355581D01*
X245866112Y-71277635D01*
X245798046Y-71113309D01*
X245798041Y-71113299D01*
X245666924Y-70886196D01*
X245507281Y-70678148D01*
X245507274Y-70678140D01*
X245321860Y-70492726D01*
X245321851Y-70492718D01*
X245113803Y-70333075D01*
X244886700Y-70201958D01*
X244886690Y-70201953D01*
X244644428Y-70101605D01*
X244644421Y-70101603D01*
X244644419Y-70101602D01*
X244391116Y-70033730D01*
X244333339Y-70026123D01*
X244131127Y-69999500D01*
X244131120Y-69999500D01*
X243923325Y-69999500D01*
X243856286Y-69979815D01*
X243810531Y-69927011D01*
X243800587Y-69857853D01*
X243829612Y-69794297D01*
X243835644Y-69787819D01*
X243943787Y-69679676D01*
X244005110Y-69646191D01*
X244031468Y-69643357D01*
X244131113Y-69643357D01*
X244131120Y-69643357D01*
X244391116Y-69609127D01*
X244644419Y-69541255D01*
X244886697Y-69440900D01*
X245113803Y-69309781D01*
X245321851Y-69150139D01*
X245321855Y-69150134D01*
X245321860Y-69150131D01*
X245507274Y-68964717D01*
X245507277Y-68964712D01*
X245507282Y-68964708D01*
X245666924Y-68756660D01*
X245798043Y-68529554D01*
X245898398Y-68287276D01*
X245966270Y-68033973D01*
X246000500Y-67773977D01*
X246000500Y-67511737D01*
X245966270Y-67251741D01*
X245898398Y-66998438D01*
X245890007Y-66978181D01*
X245798046Y-66756166D01*
X245798041Y-66756156D01*
X245666924Y-66529053D01*
X245507281Y-66321005D01*
X245507274Y-66320997D01*
X245321860Y-66135583D01*
X245321851Y-66135575D01*
X245113803Y-65975932D01*
X244886700Y-65844815D01*
X244886690Y-65844810D01*
X244644428Y-65744462D01*
X244644421Y-65744460D01*
X244644419Y-65744459D01*
X244391116Y-65676587D01*
X244333339Y-65668980D01*
X244131127Y-65642357D01*
X244131120Y-65642357D01*
X243923325Y-65642357D01*
X243856286Y-65622672D01*
X243810531Y-65569868D01*
X243800587Y-65500710D01*
X243829612Y-65437154D01*
X243835644Y-65430676D01*
X243943787Y-65322533D01*
X244005110Y-65289048D01*
X244031468Y-65286214D01*
X244131113Y-65286214D01*
X244131120Y-65286214D01*
X244391116Y-65251984D01*
X244644419Y-65184112D01*
X244866879Y-65091966D01*
X244886690Y-65083760D01*
X244886691Y-65083759D01*
X244886697Y-65083757D01*
X245113803Y-64952638D01*
X245321851Y-64792996D01*
X245321855Y-64792991D01*
X245321860Y-64792988D01*
X245507274Y-64607574D01*
X245507277Y-64607569D01*
X245507282Y-64607565D01*
X245666924Y-64399517D01*
X245798043Y-64172411D01*
X245898398Y-63930133D01*
X245966270Y-63676830D01*
X246000500Y-63416834D01*
X246000500Y-63154594D01*
X245966270Y-62894598D01*
X245898398Y-62641295D01*
X245856822Y-62540921D01*
X245798046Y-62399023D01*
X245798041Y-62399013D01*
X245666924Y-62171910D01*
X245507281Y-61963862D01*
X245507274Y-61963854D01*
X245321860Y-61778440D01*
X245321851Y-61778432D01*
X245113803Y-61618789D01*
X244886700Y-61487672D01*
X244886690Y-61487667D01*
X244644428Y-61387319D01*
X244644421Y-61387317D01*
X244644419Y-61387316D01*
X244391116Y-61319444D01*
X244330906Y-61311517D01*
X244131127Y-61285214D01*
X244131120Y-61285214D01*
X243994753Y-61285214D01*
X243927714Y-61265529D01*
X243881959Y-61212725D01*
X243872015Y-61143567D01*
X243901040Y-61080011D01*
X243907072Y-61073533D01*
X244140305Y-60840301D01*
X244543787Y-60436819D01*
X244605110Y-60403334D01*
X244631468Y-60400500D01*
X247238532Y-60400500D01*
X247305571Y-60420185D01*
G37*
%TD.AperFunction*%
%TA.AperFunction,Conductor*%
G36*
X256875396Y-74721678D02*
G01*
X256928848Y-74766674D01*
X256949487Y-74833425D01*
X256949500Y-74835196D01*
X256949500Y-86373439D01*
X256929815Y-86440478D01*
X256877011Y-86486233D01*
X256807853Y-86496177D01*
X256744297Y-86467152D01*
X256715016Y-86429735D01*
X256697818Y-86395984D01*
X256697813Y-86395975D01*
X256690709Y-86386197D01*
X256605217Y-86268527D01*
X256574181Y-86225809D01*
X256550702Y-86160002D01*
X256550500Y-86152924D01*
X256550500Y-74859112D01*
X256570185Y-74792073D01*
X256622989Y-74746318D01*
X256655102Y-74736639D01*
X256806102Y-74712723D01*
X256875396Y-74721678D01*
G37*
%TD.AperFunction*%
%TA.AperFunction,Conductor*%
G36*
X211935571Y-55420185D02*
G01*
X211956213Y-55436819D01*
X213925578Y-57406184D01*
X213959063Y-57467507D01*
X213961515Y-57484137D01*
X213967596Y-57561413D01*
X213967597Y-57561420D01*
X214022594Y-57779678D01*
X214022595Y-57779681D01*
X214115683Y-57984622D01*
X214115689Y-57984632D01*
X214243866Y-58169645D01*
X214243870Y-58169650D01*
X214243873Y-58169654D01*
X214403038Y-58328819D01*
X214403042Y-58328822D01*
X214403046Y-58328825D01*
X214542295Y-58425297D01*
X214588066Y-58457007D01*
X214793009Y-58550096D01*
X214793013Y-58550097D01*
X215011271Y-58605094D01*
X215011273Y-58605094D01*
X215011280Y-58605096D01*
X215143475Y-58615500D01*
X215526223Y-58615499D01*
X215593262Y-58635183D01*
X215613904Y-58651818D01*
X218563181Y-61601095D01*
X218596666Y-61662418D01*
X218599500Y-61688776D01*
X218599500Y-65885362D01*
X218599499Y-65885377D01*
X218599499Y-66110220D01*
X218615302Y-66209993D01*
X218615302Y-66209994D01*
X218633985Y-66327952D01*
X218702103Y-66537603D01*
X218702104Y-66537606D01*
X218802187Y-66734025D01*
X218931751Y-66912357D01*
X218931755Y-66912361D01*
X218931758Y-66912365D01*
X219014208Y-66994815D01*
X219091965Y-67072572D01*
X219091976Y-67072582D01*
X219907213Y-67887819D01*
X219940698Y-67949142D01*
X219935714Y-68018834D01*
X219893842Y-68074767D01*
X219828378Y-68099184D01*
X219819532Y-68099500D01*
X217652209Y-68099500D01*
X217585170Y-68079815D01*
X217539415Y-68027011D01*
X217531968Y-68005799D01*
X217492789Y-67850318D01*
X217458110Y-67773970D01*
X217399700Y-67645374D01*
X217307116Y-67511737D01*
X217271518Y-67460354D01*
X217271515Y-67460350D01*
X217271512Y-67460346D01*
X217112347Y-67301181D01*
X217112343Y-67301178D01*
X217112338Y-67301174D01*
X216927325Y-67172997D01*
X216927323Y-67172995D01*
X216927319Y-67172993D01*
X216833267Y-67130273D01*
X216722374Y-67079903D01*
X216722371Y-67079902D01*
X216504113Y-67024905D01*
X216504106Y-67024904D01*
X216371915Y-67014500D01*
X216371910Y-67014500D01*
X215546468Y-67014500D01*
X215479429Y-66994815D01*
X215458787Y-66978181D01*
X213572582Y-65091976D01*
X213572573Y-65091966D01*
X213530613Y-65050006D01*
X213412365Y-64931758D01*
X213412361Y-64931755D01*
X213412357Y-64931751D01*
X213234025Y-64802187D01*
X213234024Y-64802186D01*
X213234022Y-64802185D01*
X213171096Y-64770122D01*
X213037606Y-64702104D01*
X213037603Y-64702103D01*
X212827952Y-64633985D01*
X212719086Y-64616742D01*
X212610222Y-64599499D01*
X212389778Y-64599499D01*
X212384667Y-64599499D01*
X212384643Y-64599500D01*
X207674569Y-64599500D01*
X207607530Y-64579815D01*
X207599083Y-64573876D01*
X207502454Y-64499730D01*
X207502453Y-64499729D01*
X207502450Y-64499727D01*
X207419748Y-64451979D01*
X207298056Y-64381719D01*
X207298045Y-64381714D01*
X207079993Y-64291394D01*
X207073055Y-64289535D01*
X206852014Y-64230307D01*
X206852013Y-64230306D01*
X206852010Y-64230306D01*
X206618020Y-64199501D01*
X206618017Y-64199500D01*
X206618011Y-64199500D01*
X206381989Y-64199500D01*
X206381983Y-64199500D01*
X206381979Y-64199501D01*
X206147989Y-64230306D01*
X205920003Y-64291395D01*
X205721952Y-64373430D01*
X205652483Y-64380899D01*
X205590004Y-64349624D01*
X205554352Y-64289535D01*
X205550500Y-64258869D01*
X205550500Y-62999443D01*
X205570185Y-62932404D01*
X205622989Y-62886649D01*
X205692147Y-62876705D01*
X205713504Y-62881737D01*
X205797302Y-62909505D01*
X205797309Y-62909506D01*
X205900019Y-62919999D01*
X206249999Y-62919999D01*
X206250000Y-62919998D01*
X206250000Y-61935686D01*
X206254394Y-61940080D01*
X206345606Y-61992741D01*
X206447339Y-62020000D01*
X206552661Y-62020000D01*
X206654394Y-61992741D01*
X206745606Y-61940080D01*
X206750000Y-61935686D01*
X206750000Y-62919999D01*
X207099972Y-62919999D01*
X207099986Y-62919998D01*
X207202697Y-62909505D01*
X207369119Y-62854358D01*
X207369124Y-62854356D01*
X207518345Y-62762315D01*
X207521127Y-62759534D01*
X207642315Y-62638345D01*
X207734356Y-62489124D01*
X207734358Y-62489119D01*
X207789505Y-62322697D01*
X207789506Y-62322690D01*
X207799999Y-62219986D01*
X207800000Y-62219973D01*
X207800000Y-61870000D01*
X206815686Y-61870000D01*
X206820080Y-61865606D01*
X206872741Y-61774394D01*
X206889277Y-61712682D01*
X214457692Y-61712682D01*
X214457692Y-61917317D01*
X214489701Y-62119417D01*
X214552936Y-62314031D01*
X214645833Y-62496350D01*
X214645839Y-62496359D01*
X214678215Y-62540921D01*
X214678216Y-62540922D01*
X215357692Y-61861446D01*
X215357692Y-61867661D01*
X215384951Y-61969394D01*
X215437612Y-62060606D01*
X215512086Y-62135080D01*
X215603298Y-62187741D01*
X215705031Y-62215000D01*
X215711245Y-62215000D01*
X215031768Y-62894474D01*
X215076342Y-62926859D01*
X215258660Y-63019755D01*
X215453274Y-63082990D01*
X215655375Y-63115000D01*
X215860009Y-63115000D01*
X216062109Y-63082990D01*
X216256723Y-63019755D01*
X216439041Y-62926859D01*
X216483613Y-62894474D01*
X215804139Y-62215000D01*
X215810353Y-62215000D01*
X215912086Y-62187741D01*
X216003298Y-62135080D01*
X216077772Y-62060606D01*
X216130433Y-61969394D01*
X216157692Y-61867661D01*
X216157692Y-61861447D01*
X216837166Y-62540921D01*
X216869551Y-62496349D01*
X216962447Y-62314031D01*
X217025682Y-62119417D01*
X217057692Y-61917317D01*
X217057692Y-61712682D01*
X217025682Y-61510582D01*
X216962447Y-61315968D01*
X216869551Y-61133650D01*
X216837166Y-61089077D01*
X216837166Y-61089076D01*
X216157692Y-61768551D01*
X216157692Y-61762339D01*
X216130433Y-61660606D01*
X216077772Y-61569394D01*
X216003298Y-61494920D01*
X215912086Y-61442259D01*
X215810353Y-61415000D01*
X215804138Y-61415000D01*
X216483614Y-60735524D01*
X216483613Y-60735523D01*
X216439051Y-60703147D01*
X216439042Y-60703141D01*
X216256723Y-60610244D01*
X216062109Y-60547009D01*
X215860009Y-60515000D01*
X215655375Y-60515000D01*
X215453274Y-60547009D01*
X215258660Y-60610244D01*
X215076336Y-60703143D01*
X215031769Y-60735523D01*
X215031769Y-60735524D01*
X215711246Y-61415000D01*
X215705031Y-61415000D01*
X215603298Y-61442259D01*
X215512086Y-61494920D01*
X215437612Y-61569394D01*
X215384951Y-61660606D01*
X215357692Y-61762339D01*
X215357692Y-61768553D01*
X214678216Y-61089077D01*
X214678215Y-61089077D01*
X214645835Y-61133644D01*
X214552936Y-61315968D01*
X214489701Y-61510582D01*
X214457692Y-61712682D01*
X206889277Y-61712682D01*
X206900000Y-61672661D01*
X206900000Y-61567339D01*
X206872741Y-61465606D01*
X206820080Y-61374394D01*
X206815686Y-61370000D01*
X207799999Y-61370000D01*
X207799999Y-61020028D01*
X207799998Y-61020013D01*
X207789505Y-60917302D01*
X207757855Y-60821787D01*
X207734357Y-60750878D01*
X207734356Y-60750875D01*
X207642315Y-60601654D01*
X207518345Y-60477684D01*
X207369124Y-60385643D01*
X207369119Y-60385641D01*
X207202697Y-60330494D01*
X207202690Y-60330493D01*
X207099986Y-60320000D01*
X206750000Y-60320000D01*
X206750000Y-61304314D01*
X206745606Y-61299920D01*
X206654394Y-61247259D01*
X206552661Y-61220000D01*
X206447339Y-61220000D01*
X206345606Y-61247259D01*
X206254394Y-61299920D01*
X206250000Y-61304314D01*
X206250000Y-60320000D01*
X205900028Y-60320000D01*
X205900012Y-60320001D01*
X205797302Y-60330494D01*
X205713504Y-60358262D01*
X205643675Y-60360664D01*
X205583633Y-60324932D01*
X205552441Y-60262411D01*
X205550500Y-60240556D01*
X205550500Y-55741130D01*
X205570185Y-55674091D01*
X205622989Y-55628336D01*
X205692147Y-55618392D01*
X205721952Y-55626568D01*
X205920007Y-55708606D01*
X206147986Y-55769693D01*
X206381989Y-55800500D01*
X206381996Y-55800500D01*
X206618004Y-55800500D01*
X206618011Y-55800500D01*
X206852014Y-55769693D01*
X207079993Y-55708606D01*
X207298049Y-55618284D01*
X207502450Y-55500273D01*
X207599083Y-55426123D01*
X207664252Y-55400930D01*
X207674569Y-55400500D01*
X211868532Y-55400500D01*
X211935571Y-55420185D01*
G37*
%TD.AperFunction*%
%TD*%
D13*
%TO.P,D1,1,K_1*%
%TO.N,Net-(D1-K)*%
X205580000Y-87270000D03*
D14*
%TO.P,D1,2,A_2*%
%TO.N,Net-(D1-A)*%
X205580000Y-84730000D03*
%TD*%
D15*
%TO.P,C1,1*%
%TO.N,Net-(A1-D10{slash}CS)*%
X256500000Y-68445000D03*
D16*
%TO.P,C1,2*%
%TO.N,Net-(D1-K)*%
X256500000Y-73445000D03*
%TD*%
D17*
%TO.P,Xdir1,1,1_1*%
%TO.N,Net-(A1-D5)*%
X244000000Y-80714285D03*
%TD*%
%TO.P,Enable1,1,1_1*%
%TO.N,Net-(A1-D3)*%
X244000000Y-89428571D03*
%TD*%
%TO.P,Ystep1,1,1_1*%
%TO.N,Net-(A1-D6)*%
X244000000Y-76357142D03*
%TD*%
D18*
%TO.P,Zmax1,1,1_1*%
%TO.N,Net-(D1-K)*%
X206500000Y-73620000D03*
D16*
%TO.P,Zmax1,2,2_2*%
%TO.N,Net-(A1-A1)*%
X206500000Y-66000000D03*
%TD*%
D18*
%TO.P,Ymax1,1,1_1*%
%TO.N,Net-(D1-K)*%
X242540385Y-107000000D03*
D16*
%TO.P,Ymax1,2,2_2*%
%TO.N,Net-(A1-SDA{slash}A4)*%
X242540385Y-99380000D03*
%TD*%
D17*
%TO.P,5Vacces1,1,1_1*%
%TO.N,Net-(A1-VUSB{slash}5V)*%
X219000000Y-87500000D03*
%TD*%
D18*
%TO.P,Xmin1,1,1_1*%
%TO.N,Net-(D1-K)*%
X250000000Y-73250000D03*
D16*
%TO.P,Xmin1,2,2_2*%
%TO.N,Net-(A1-D10{slash}CS)*%
X250000000Y-65630000D03*
%TD*%
D17*
%TO.P,Ydir1,1,1_1*%
%TO.N,Net-(A1-D7)*%
X244000000Y-72000000D03*
%TD*%
%TO.P,Pwm2,1,1_1*%
%TO.N,Net-(D1-K)*%
X249500000Y-79130000D03*
%TD*%
D15*
%TO.P,C4,1*%
%TO.N,Net-(A1-SDA{slash}A4)*%
X251798077Y-102195000D03*
D16*
%TO.P,C4,2*%
%TO.N,Net-(D1-K)*%
X251798077Y-107195000D03*
%TD*%
D18*
%TO.P,Ymin1,1,1_1*%
%TO.N,Net-(D1-K)*%
X206500000Y-100120000D03*
D16*
%TO.P,Ymin1,2,2_2*%
%TO.N,Net-(A1-A3)*%
X206500000Y-92500000D03*
%TD*%
D15*
%TO.P,C5,1*%
%TO.N,Net-(A1-A0)*%
X215757692Y-56815000D03*
D16*
%TO.P,C5,2*%
%TO.N,Net-(D1-K)*%
X215757692Y-61815000D03*
%TD*%
D17*
%TO.P,Pwm1,1,1_1*%
%TO.N,Net-(A1-D11{slash}COPI)*%
X244000000Y-55500000D03*
%TD*%
D19*
%TO.P,A1,1,D1/TX_1*%
%TO.N,unconnected-(A1-D1{slash}TX-Pad1)*%
X238110000Y-95050000D03*
D20*
%TO.P,A1,2,D0/RX_2*%
%TO.N,unconnected-(A1-D0{slash}RX-Pad2)*%
X238110000Y-92510000D03*
%TO.P,A1,3,~{RESET}_3*%
%TO.N,unconnected-(A1-~{RESET}-Pad3)*%
X238110000Y-89970000D03*
%TO.P,A1,4,GND_4*%
%TO.N,Net-(D1-K)*%
X238110000Y-87430000D03*
%TO.P,A1,5,D2_5*%
%TO.N,Net-(A1-D2)*%
X238110000Y-84890000D03*
%TO.P,A1,6,D3_6*%
%TO.N,Net-(A1-D3)*%
X238110000Y-82350000D03*
%TO.P,A1,7,D4_7*%
%TO.N,Net-(A1-D4)*%
X238110000Y-79810000D03*
%TO.P,A1,8,D5_8*%
%TO.N,Net-(A1-D5)*%
X238110000Y-77270000D03*
%TO.P,A1,9,D6_9*%
%TO.N,Net-(A1-D6)*%
X238110000Y-74730000D03*
%TO.P,A1,10,D7_10*%
%TO.N,Net-(A1-D7)*%
X238110000Y-72190000D03*
%TO.P,A1,11,D8_11*%
%TO.N,Net-(A1-D8)*%
X238110000Y-69650000D03*
%TO.P,A1,12,D9_12*%
%TO.N,Net-(A1-D9)*%
X238110000Y-67110000D03*
%TO.P,A1,13,D10/CS_13*%
%TO.N,Net-(A1-D10{slash}CS)*%
X238110000Y-64570000D03*
%TO.P,A1,14,D11/COPI_14*%
%TO.N,Net-(A1-D11{slash}COPI)*%
X238110000Y-62030000D03*
%TO.P,A1,15,D12/CIPO_15*%
%TO.N,unconnected-(A1-D12{slash}CIPO-Pad15)*%
X238110000Y-59490000D03*
%TO.P,A1,16,D13/SCK_16*%
%TO.N,unconnected-(A1-D13{slash}SCK-Pad16)*%
X222870000Y-59490000D03*
%TO.P,A1,17,3V3_17*%
%TO.N,unconnected-(A1-3V3-Pad17)*%
X222870000Y-62030000D03*
%TO.P,A1,18,REF_18*%
%TO.N,unconnected-(A1-REF-Pad18)*%
X222870000Y-64570000D03*
%TO.P,A1,19,A0_19*%
%TO.N,Net-(A1-A0)*%
X222870000Y-67110000D03*
%TO.P,A1,20,A1_20*%
%TO.N,Net-(A1-A1)*%
X222870000Y-69650000D03*
%TO.P,A1,21,A2_21*%
%TO.N,Net-(A1-A2)*%
X222870000Y-72190000D03*
%TO.P,A1,22,A3_22*%
%TO.N,Net-(A1-A3)*%
X222870000Y-74730000D03*
%TO.P,A1,23,SDA/A4_23*%
%TO.N,Net-(A1-SDA{slash}A4)*%
X222870000Y-77270000D03*
%TO.P,A1,24,SCL/A5_24*%
%TO.N,Net-(A1-SCL{slash}A5)*%
X222870000Y-79810000D03*
%TO.P,A1,25,A6_25*%
%TO.N,unconnected-(A1-A6-Pad25)*%
X222870000Y-82350000D03*
%TO.P,A1,26,A7_26*%
%TO.N,unconnected-(A1-A7-Pad26)*%
X222870000Y-84890000D03*
%TO.P,A1,27,VUSB/5V_27*%
%TO.N,Net-(A1-VUSB{slash}5V)*%
X222870000Y-87430000D03*
%TO.P,A1,28,REC_28*%
%TO.N,unconnected-(A1-REC-Pad28)*%
X222870000Y-89970000D03*
%TO.P,A1,29,GND_29*%
%TO.N,Net-(D1-K)*%
X222870000Y-92510000D03*
%TO.P,A1,30,VIN_30*%
%TO.N,unconnected-(A1-VIN-Pad30)*%
X222870000Y-95050000D03*
%TD*%
D18*
%TO.P,Zmin1,1,1_1*%
%TO.N,Net-(D1-K)*%
X206500000Y-61620000D03*
D16*
%TO.P,Zmin1,2,2_2*%
%TO.N,Net-(A1-A0)*%
X206500000Y-54000000D03*
%TD*%
%TO.P,R1,1*%
%TO.N,Net-(A1-SCL{slash}A5)*%
X215580000Y-80000000D03*
%TO.P,R1,2*%
%TO.N,Net-(D1-A)*%
X205420000Y-80000000D03*
%TD*%
D15*
%TO.P,C2,1*%
%TO.N,Net-(A1-A2)*%
X233257692Y-102195000D03*
D16*
%TO.P,C2,2*%
%TO.N,Net-(D1-K)*%
X233257692Y-107195000D03*
%TD*%
D17*
%TO.P,Zstep1,1,1_1*%
%TO.N,Net-(A1-D8)*%
X244000000Y-67642857D03*
%TD*%
D18*
%TO.P,C7,1*%
%TO.N,Net-(D1-K)*%
X255500000Y-93630000D03*
D16*
%TO.P,C7,2*%
%TO.N,Net-(A1-D2)*%
X255500000Y-88630000D03*
%TD*%
D17*
%TO.P,Zdir1,1,1_1*%
%TO.N,Net-(A1-D9)*%
X244000000Y-63285714D03*
%TD*%
D15*
%TO.P,C6,1*%
%TO.N,Net-(A1-A1)*%
X215757693Y-68815000D03*
D16*
%TO.P,C6,2*%
%TO.N,Net-(D1-K)*%
X215757693Y-73815000D03*
%TD*%
D18*
%TO.P,Xmax1,1,1_1*%
%TO.N,Net-(D1-K)*%
X224000000Y-107000000D03*
D16*
%TO.P,Xmax1,2,2_2*%
%TO.N,Net-(A1-A2)*%
X224000000Y-99380000D03*
%TD*%
D15*
%TO.P,Estop1,1,1_1*%
%TO.N,Net-(A1-D2)*%
X249500000Y-85630000D03*
D16*
%TO.P,Estop1,2,2_2*%
%TO.N,Net-(D1-K)*%
X249500000Y-93250000D03*
%TD*%
D17*
%TO.P,Xstep1,1,1_1*%
%TO.N,Net-(A1-D4)*%
X244000000Y-85071428D03*
%TD*%
D15*
%TO.P,C3,1*%
%TO.N,Net-(A1-A3)*%
X215757693Y-95315000D03*
D16*
%TO.P,C3,2*%
%TO.N,Net-(D1-K)*%
X215757693Y-100315000D03*
%TD*%
D21*
%TO.N,*%
X256000000Y-107000000D03*
X255000000Y-55000000D03*
X206000000Y-106500000D03*
%TD*%
M02*
